<?xml version="1.0" encoding="UTF-8" standalone="no"?>
<!-- Created with Inkscape (http://www.inkscape.org/) -->

<svg
   xmlnsDc="http://purl.org/dc/elements/1.1/"
   xmlnsCc="http://creativecommons.org/ns#"
   xmlnsRdf="http://www.w3.org/1999/02/22-rdf-syntax-ns#"
   xmlnsSvg="http://www.w3.org/2000/svg"
   xmlns="http://www.w3.org/2000/svg"
   xmlnsSodipodi="http://sodipodi.sourceforge.net/DTD/sodipodi-0.dtd"
   xmlnsInkscape="http://www.inkscape.org/namespaces/inkscape"
   width="191.07619mm"
   height="46.30706mm"
   viewBox="0 0 191.07619 46.30706"
   version="1.1"
   id="svg8"
   sodipodiDocname="minesweeper.svg"
   inkscapeVersion="0.92.5 (2060ec1f9f, 2020-04-08)">
  <defs
     id="defs2">
    <clipPath
       clipPathUnits="userSpaceOnUse"
       id="clipPath1041">
      <rect
         style="fill:#f4a730;fill-opacity:1;stroke-width:0.99999994"
         id="rect1043"
         width="733.57135"
         height="183.57143"
         x="32.142857"
         y="182.51965" />
    </clipPath>
    <clipPath
       clipPathUnits="userSpaceOnUse"
       id="clipPath1045">
      <rect
         style="fill:#f4a730;fill-opacity:1;stroke-width:0.99999994"
         id="rect1047"
         width="733.57135"
         height="183.57143"
         x="32.142857"
         y="182.51965" />
    </clipPath>
    <clipPath
       clipPathUnits="userSpaceOnUse"
       id="clipPath1051">
      <rect
         style="fill:#f4a730;fill-opacity:1;stroke-width:0.99999994"
         id="rect1053"
         width="733.57129"
         height="183.57141"
         x="32.142857"
         y="182.51965" />
    </clipPath>
    <clipPath
       clipPathUnits="userSpaceOnUse"
       id="clipPath1055">
      <rect
         style="fill:#f4a730;fill-opacity:1;stroke-width:0.99999994"
         id="rect1057"
         width="733.57129"
         height="183.57141"
         x="32.142857"
         y="182.51965" />
    </clipPath>
    <filter
       style="color-interpolation-filters:sRGB;"
       inkscapeLabel="Invert"
       id="filter1061">
      <feColorMatrix
         values="1 0 0 0 0 0 1 0 0 0 0 0 1 0 0 -0.21 -0.72 -0.07 2 0 "
         result="fbSourceGraphic"
         id="feColorMatrix1059" />
      <feColorMatrix
         result="fbSourceGraphicAlpha"
         in="fbSourceGraphic"
         values="0 0 0 -1 0 0 0 0 -1 0 0 0 0 -1 0 0 0 0 1 0"
         id="feColorMatrix1067" />
      <feColorMatrix
         id="feColorMatrix1069"
         values="1 0 0 0 0 0 1 0 0 0 0 0 1 0 0 -0.21 -0.72 -0.07 2 0 "
         result="fbSourceGraphic"
         in="fbSourceGraphic" />
      <feColorMatrix
         result="fbSourceGraphicAlpha"
         in="fbSourceGraphic"
         values="0 0 0 -1 0 0 0 0 -1 0 0 0 0 -1 0 0 0 0 1 0"
         id="feColorMatrix1075" />
      <feColorMatrix
         id="feColorMatrix1077"
         values="1 0 0 0 0 0 1 0 0 0 0 0 1 0 0 -0.21 -0.72 -0.07 2 0 "
         result="fbSourceGraphic"
         in="fbSourceGraphic" />
      <feColorMatrix
         result="fbSourceGraphicAlpha"
         in="fbSourceGraphic"
         values="0 0 0 -1 0 0 0 0 -1 0 0 0 0 -1 0 0 0 0 1 0"
         id="feColorMatrix1083" />
      <feColorMatrix
         id="feColorMatrix1085"
         values="1 0 0 0 0 0 1 0 0 0 0 0 1 0 0 -0.21 -0.72 -0.07 2 0 "
         result="fbSourceGraphic"
         in="fbSourceGraphic" />
      <feColorMatrix
         result="fbSourceGraphicAlpha"
         in="fbSourceGraphic"
         values="0 0 0 -1 0 0 0 0 -1 0 0 0 0 -1 0 0 0 0 1 0"
         id="feColorMatrix1091" />
      <feColorMatrix
         id="feColorMatrix1093"
         values="-1 0 0 0 1 0 -1 0 0 1 0 0 -1 0 1 -0.21 -0.72 -0.07 2 0 "
         result="color2"
         in="fbSourceGraphic" />
    </filter>
    <filter
       style="color-interpolation-filters:sRGB;"
       inkscapeLabel="Invert"
       id="filter1065">
      <feColorMatrix
         values="1 0 0 0 0 0 1 0 0 0 0 0 1 0 0 -0.21 -0.72 -0.07 2 0 "
         result="fbSourceGraphic"
         id="feColorMatrix1063" />
      <feColorMatrix
         result="fbSourceGraphicAlpha"
         in="fbSourceGraphic"
         values="0 0 0 -1 0 0 0 0 -1 0 0 0 0 -1 0 0 0 0 1 0"
         id="feColorMatrix1071" />
      <feColorMatrix
         id="feColorMatrix1073"
         values="1 0 0 0 0 0 1 0 0 0 0 0 1 0 0 -0.21 -0.72 -0.07 2 0 "
         result="fbSourceGraphic"
         in="fbSourceGraphic" />
      <feColorMatrix
         result="fbSourceGraphicAlpha"
         in="fbSourceGraphic"
         values="0 0 0 -1 0 0 0 0 -1 0 0 0 0 -1 0 0 0 0 1 0"
         id="feColorMatrix1079" />
      <feColorMatrix
         id="feColorMatrix1081"
         values="1 0 0 0 0 0 1 0 0 0 0 0 1 0 0 -0.21 -0.72 -0.07 2 0 "
         result="fbSourceGraphic"
         in="fbSourceGraphic" />
      <feColorMatrix
         result="fbSourceGraphicAlpha"
         in="fbSourceGraphic"
         values="0 0 0 -1 0 0 0 0 -1 0 0 0 0 -1 0 0 0 0 1 0"
         id="feColorMatrix1087" />
      <feColorMatrix
         id="feColorMatrix1089"
         values="1 0 0 0 0 0 1 0 0 0 0 0 1 0 0 -0.21 -0.72 -0.07 2 0 "
         result="fbSourceGraphic"
         in="fbSourceGraphic" />
      <feColorMatrix
         result="fbSourceGraphicAlpha"
         in="fbSourceGraphic"
         values="0 0 0 -1 0 0 0 0 -1 0 0 0 0 -1 0 0 0 0 1 0"
         id="feColorMatrix1095" />
      <feColorMatrix
         id="feColorMatrix1097"
         values="-1 0 0 0 1 0 -1 0 0 1 0 0 -1 0 1 -0.21 -0.72 -0.07 2 0 "
         result="color2"
         in="fbSourceGraphic" />
    </filter>
  </defs>
  <sodipodiNamedview
     id="base"
     pagecolor="#ffffff"
     bordercolor="#666666"
     borderopacity="1.0"
     inkscapePageopacity="0"
     inkscapePageshadow="2"
     inkscapeZoom="1.4"
     inkscapeCx="497.0112"
     inkscapeCy="91.425601"
     inkscapeDocument-units="mm"
     inkscapeCurrent-layer="layer1"
     showgrid="false"
     inkscapeWindow-width="2560"
     inkscapeWindow-height="1004"
     inkscapeWindow-x="1920"
     inkscapeWindow-y="32"
     inkscapeWindow-maximized="1"
     fit-margin-top="0"
     fit-margin-left="0"
     fit-margin-right="0"
     fit-margin-bottom="0" />
  <metadata
     id="metadata5">
    <rdfRDF>
      <ccWork
         rdfAbout="">
        <dcFormat>image/svg+xml</dcFormat>
        <dcType
           rdfResource="http://purl.org/dc/dcmitype/StillImage" />
        <dcTitle></dcTitle>
      </ccWork>
    </rdfRDF>
  </metadata>
  <g
     inkscapeLabel="Layer 1"
     inkscapeGroupmode="layer"
     id="layer1"
     transform="translate(-9.7782143,-49.47779)">
    <path
       style="font-style:normal;font-variant:normal;font-weight:normal;font-stretch:normal;font-size:36.92808914px;line-height:1.25;font-family:Hasthon;-inkscape-font-specification:Hasthon;letter-spacing:0px;word-spacing:0px;fill:#000000;fill-opacity:1;stroke:none;stroke-width:1.86925066;filter:url(#filter1061)"
       d="m 319.83789,187.00977 c -1.41052,-0.0238 -2.8219,0.0123 -4.23242,0.10742 -3.73105,0.19028 -7.23372,1.09357 -10.50977,2.71093 -3.18504,1.52223 -6.00585,3.56797 -8.46289,6.13672 -2.45704,2.56875 -4.41507,5.5178 -5.87109,8.84766 -1.36502,3.32986 -2.04688,6.85013 -2.04688,10.56055 0.091,8.37222 3.36703,15.41275 9.82813,21.12109 2.18403,1.90278 4.46014,3.71133 6.82617,5.42383 l 7.09766,4.85156 c 1.27402,0.85625 2.50252,1.66467 3.68554,2.42578 1.18302,0.76111 2.27438,1.66441 3.27539,2.71094 2.09302,1.99792 3.23009,4.28281 3.41211,6.85156 0.18201,2.56875 -0.637,5.04145 -2.45703,7.41992 -1.72902,2.28334 -4.18604,3.8053 -7.37109,4.56641 -4.91407,1.23681 -10.05475,1.42657 -15.42383,0.57031 -0.72801,-0.19028 -1.40986,-0.28515 -2.04687,-0.28515 -0.63701,0 -1.36654,-0.0949 -2.18555,-0.28516 v 13.41406 c 0,0.85626 0.2743,1.42748 0.82031,1.71289 0.54601,0.28541 1.13643,0.47713 1.77344,0.57227 2.54804,0.28542 5.05078,0.61749 7.50781,0.99805 2.54804,0.28541 5.05078,0.42773 7.50781,0.42773 6.6431,0 12.42187,-1.75916 17.33594,-5.2793 5.00508,-3.61528 8.50774,-8.56262 10.50977,-14.84179 0.36399,-1.23681 0.59258,-2.4267 0.68359,-3.56836 0.18201,-1.23681 0.40864,-2.47413 0.68164,-3.71094 v -1.42578 c -0.18198,-1.14167 -0.3629,-2.23668 -0.54492,-3.2832 -0.091,-1.04653 -0.27387,-2.09215 -0.54688,-3.13868 -0.72801,-3.04444 -1.86508,-5.75629 -3.4121,-8.13476 -1.45603,-2.37847 -3.32068,-4.5191 -5.59571,-6.42188 -2.18403,-1.7125 -4.41442,-3.37678 -6.68945,-4.99414 -2.27503,-1.61736 -4.50542,-3.23615 -6.68945,-4.85351 -1.27402,-0.76111 -2.50253,-1.52209 -3.68555,-2.28321 -1.18302,-0.85624 -2.27438,-1.75954 -3.27539,-2.71093 -2.36601,-2.1882 -3.64025,-4.61346 -3.82227,-7.27735 -0.182,-2.66389 0.77416,-5.23342 2.86719,-7.70703 1.72902,-2.09306 3.95746,-3.42526 6.6875,-3.99609 2.45704,-0.66597 4.87029,-1.09292 7.23633,-1.28321 2.45703,-0.19027 4.95782,-0.048 7.50586,0.42774 0.81901,0.19028 1.63802,0.33259 2.45703,0.42773 0.81901,0 1.72945,0.0949 2.73047,0.28516 v -6.2793 c 0.091,-2.09305 0.091,-4.1388 0,-6.13672 0,-1.33194 -0.1352,-2.14036 -0.40821,-2.42578 -0.273,-0.38055 -1.09201,-0.66518 -2.45703,-0.85547 -2.82104,-0.47569 -5.6438,-0.85716 -8.46484,-1.14257 -1.41052,-0.14272 -2.81995,-0.22622 -4.23047,-0.25 z m -81.48242,0.22265 c -1.48446,0.0178 -2.94368,0.16966 -4.37695,0.45508 -0.091,0.85625 -0.18243,2.90199 -0.27344,6.13672 -0.091,3.13958 -0.18243,7.08875 -0.27344,11.8457 -0.091,4.66181 -0.13672,9.89379 -0.13672,15.69727 v 17.41015 17.26758 c 0,5.6132 0.0457,10.65542 0.13672,15.12696 0.091,4.47153 0.18243,8.13606 0.27344,10.99023 0.091,2.85417 0.18242,4.47101 0.27344,4.85156 0.637,0.0951 2.18359,0.19001 4.64062,0.28516 2.54804,0 5.506,0.0474 8.87305,0.14258 h 10.7832 c 3.82206,-0.0952 7.37044,-0.19002 10.64649,-0.28516 3.27604,-0.0951 6.05309,-0.19001 8.32812,-0.28516 2.36603,-0.0951 3.77546,-0.19001 4.23047,-0.28515 0.18202,-1.04653 0.27344,-2.37874 0.27344,-3.9961 0.091,-1.61736 0.13671,-3.23615 0.13671,-4.85351 10e-6,-1.61737 -0.0914,-3.13932 -0.27343,-4.56641 -0.091,-1.42708 -0.27192,-2.52013 -0.54492,-3.28125 -5.00508,-0.19028 -10.05628,-0.23772 -15.15235,-0.14258 -5.00507,0.0951 -10.10198,2.6e-4 -15.28906,-0.28515 v -3.28321 c 0.091,-1.04652 0.091,-2.09214 0,-3.13867 -0.364,-2.75903 -2.2e-4,-5.1388 1.0918,-7.13672 1.18301,-2.09305 2.68583,-3.99453 4.50586,-5.70703 2.18403,-1.99792 4.54962,-3.56927 7.09765,-4.71093 2.54804,-1.23681 5.23169,-2.18755 8.05274,-2.85352 0.72801,-0.19027 1.50325,-0.38003 2.32226,-0.57031 0.81902,-0.19027 1.63802,-0.38003 2.45703,-0.57032 v -17.125 h -2.18554 c -0.63701,-0.0951 -1.27315,-0.0951 -1.91016,0 -3.18505,0.57084 -6.32588,1.37926 -9.41992,2.42579 -3.09405,0.95139 -6.09577,2.2342 -9.00781,3.85156 -0.81902,0.47569 -1.77518,0.9046 -2.86719,1.28515 v -26.82812 h 2.04687 c 0.72801,-0.0951 1.41182,-0.14453 2.04883,-0.14453 3.82206,-0.0952 7.59903,-0.14258 11.33008,-0.14258 h 11.46484 c 0.72801,0 1.41182,-0.0474 2.04883,-0.14258 0.63701,-0.0951 1.31886,-0.19001 2.04688,-0.28515 0.091,-2.94931 0.13671,-5.75604 0.13671,-8.41993 0.091,-2.75903 0.0453,-5.66063 -0.13671,-8.70507 h -12.01172 c -2.09303,0.0951 -4.14055,0.14257 -6.14258,0.14257 h -6.00586 -6.00781 c -1.91103,-0.0951 -3.8214,-0.0951 -5.73242,0 -2.00204,0 -4.00383,-0.0474 -6.00586,-0.14257 -0.50051,-0.0238 -0.99737,-0.0333 -1.49219,-0.0274 z m 209.80273,0 c -1.48446,0.0178 -2.94368,0.16966 -4.37695,0.45508 -0.0912,0.85625 -0.18248,2.90199 -0.27344,6.13672 -0.0912,3.13958 -0.18247,7.08875 -0.27343,11.8457 -0.091,4.66181 -0.13672,9.89379 -0.13672,15.69727 v 17.41015 17.26758 c 0,5.6132 0.0457,10.65542 0.13672,15.12696 0.0912,4.47153 0.18247,8.13606 0.27343,10.99023 0.0912,2.85417 0.18248,4.47101 0.27344,4.85156 0.63703,0.0951 2.18358,0.19001 4.64063,0.28516 2.548,0 5.50599,0.0474 8.87304,0.14258 h 10.7832 c 3.82206,-0.0952 7.3724,-0.19002 10.64844,-0.28516 3.27605,-0.0951 6.05113,-0.19001 8.32617,-0.28516 2.36604,-0.0951 3.77547,-0.19001 4.23047,-0.28515 0.18192,-1.04653 0.27344,-2.37874 0.27344,-3.9961 0.091,-1.61736 0.13672,-3.23615 0.13672,-4.85351 0,-1.61737 -0.0913,-3.13932 -0.27344,-4.56641 -0.091,-1.42708 -0.27191,-2.52013 -0.54492,-3.28125 -5.00508,-0.19028 -10.05626,-0.23772 -15.15234,-0.14258 -5.00506,0.0951 -10.10199,2.6e-4 -15.28907,-0.28515 v -3.28321 c 0.091,-1.04652 0.091,-2.09214 0,-3.13867 -0.36399,-2.75903 -1.8e-4,-5.1388 1.0918,-7.13672 1.18304,-2.09305 2.68584,-3.99453 4.50586,-5.70703 2.18401,-1.99792 4.5496,-3.56927 7.09766,-4.71093 2.54803,-1.23681 5.23167,-2.18755 8.05273,-2.85352 0.72799,-0.19027 1.50327,-0.38003 2.32227,-0.57031 0.81902,-0.19027 1.638,-0.38003 2.45703,-0.57032 v -17.125 h -2.1836 c -0.63702,-0.0951 -1.2751,-0.0951 -1.91211,0 -3.18505,0.57084 -6.32394,1.37926 -9.41796,2.42579 -3.09408,0.95139 -6.09774,2.2342 -9.00977,3.85156 -0.81902,0.47569 -1.77518,0.9046 -2.86719,1.28515 v -26.82812 h 2.04883 c 0.72799,-0.0951 1.40985,-0.14453 2.04688,-0.14453 3.82203,-0.0952 7.599,-0.14258 11.33007,-0.14258 h 11.4668 c 0.72801,0 1.40987,-0.0474 2.04688,-0.14258 0.63702,-0.0951 1.31886,-0.19001 2.04687,-0.28515 0.091,-2.94931 0.13672,-5.75604 0.13672,-8.41993 0.0912,-2.75903 0.0455,-5.66063 -0.13672,-8.70507 h -12.01172 c -2.09305,0.0951 -4.14056,0.14257 -6.14258,0.14257 h -6.00586 -6.00586 c -1.91102,-0.0951 -3.82334,-0.0951 -5.73437,0 -2.00199,0 -4.00382,-0.0474 -6.00586,-0.14257 -0.50051,-0.0238 -0.99736,-0.0333 -1.49219,-0.0274 z m 58.42188,0 c -1.48444,0.0178 -2.94368,0.16966 -4.37696,0.45508 -0.0912,0.85625 -0.18247,2.90199 -0.27343,6.13672 -0.0912,3.13958 -0.18053,7.08875 -0.27149,11.8457 -0.091,4.66181 -0.13672,9.89379 -0.13672,15.69727 v 17.41015 17.26758 c 0,5.6132 0.0458,10.65542 0.13672,15.12696 0.0912,4.47153 0.18053,8.13606 0.27149,10.99023 0.0912,2.85417 0.18247,4.47101 0.27343,4.85156 0.63698,0.0951 2.18554,0.19001 4.64258,0.28516 2.54806,0 5.50404,0.0474 8.8711,0.14258 h 10.78515 c 3.82206,-0.0952 7.37044,-0.19002 10.64649,-0.28516 3.27604,-0.0951 6.05112,-0.19001 8.32617,-0.28516 2.36603,-0.0951 3.77742,-0.19001 4.23242,-0.28515 0.18217,-1.04653 0.27344,-2.37874 0.27344,-3.9961 0.091,-1.61736 0.13672,-3.23615 0.13672,-4.85351 0,-1.61737 -0.0913,-3.13932 -0.27344,-4.56641 -0.091,-1.42708 -0.27387,-2.52013 -0.54687,-3.28125 -5.00508,-0.19028 -10.05629,-0.23772 -15.15235,-0.14258 -5.00508,0.0951 -10.10001,2.6e-4 -15.28711,-0.28515 v -3.28321 c 0.091,-1.04652 0.091,-2.09214 0,-3.13867 -0.36399,-2.75903 -2.3e-4,-5.1388 1.0918,-7.13672 1.18299,-2.09305 2.68386,-3.99453 4.5039,-5.70703 2.18404,-1.99792 4.55158,-3.56927 7.09961,-4.71093 2.54804,-1.23681 5.2317,-2.18755 8.05274,-2.85352 0.72801,-0.19027 1.50129,-0.38003 2.32031,-0.57031 0.819,-0.19027 1.63801,-0.38003 2.45703,-0.57032 v -17.125 h -2.18359 c -0.637,-0.0951 -1.27508,-0.0951 -1.91211,0 -3.18503,0.57084 -6.32392,1.37926 -9.41797,2.42579 -3.09405,0.95139 -6.09771,2.2342 -9.00976,3.85156 -0.819,0.47569 -1.77321,0.9046 -2.86524,1.28515 v -26.82812 h 2.04688 c 0.72803,-0.0951 1.40989,-0.14453 2.04687,-0.14453 3.82206,-0.0952 7.599,-0.14258 11.33008,-0.14258 h 11.4668 c 0.72798,0 1.40984,-0.0474 2.04687,-0.14258 0.637,-0.0951 1.32082,-0.19001 2.04883,-0.28515 0.091,-2.94931 0.13476,-5.75604 0.13476,-8.41993 0.0912,-2.75903 0.0474,-5.66063 -0.13476,-8.70507 H 537.9668 c -2.09303,0.0951 -4.14054,0.14257 -6.14258,0.14257 h -6.00586 -6.00586 c -1.91103,-0.0951 -3.82139,-0.0951 -5.73242,0 -2.00204,0 -4.00382,-0.0474 -6.00586,-0.14257 -0.5005,-0.0238 -0.99933,-0.0333 -1.49414,-0.0274 z m 130.49609,0 c -1.48446,0.0178 -2.94368,0.16966 -4.37695,0.45508 -0.0912,0.85625 -0.18248,2.90199 -0.27344,6.13672 -0.091,3.13958 -0.18052,7.08875 -0.27148,11.8457 -0.091,4.66181 -0.13672,9.89379 -0.13672,15.69727 v 17.41015 17.26758 c 0,5.6132 0.0458,10.65542 0.13672,15.12696 0.091,4.47153 0.18052,8.13606 0.27148,10.99023 0.0912,2.85417 0.18248,4.47101 0.27344,4.85156 0.637,0.0951 2.18553,0.19001 4.64258,0.28516 2.54803,0 5.50404,0.0474 8.87109,0.14258 h 10.78516 c 3.82206,-0.0952 7.37044,-0.19002 10.64648,-0.28516 3.27605,-0.0951 6.05115,-0.19001 8.32617,-0.28516 2.36604,-0.0951 3.77742,-0.19001 4.23242,-0.28515 0.18218,-1.04653 0.27344,-2.37874 0.27344,-3.9961 0.091,-1.61736 0.13477,-3.23615 0.13477,-4.85351 0,-1.61737 -0.0893,-3.13932 -0.27149,-4.56641 -0.091,-1.42708 -0.27389,-2.52013 -0.54687,-3.28125 -5.0051,-0.19028 -10.05628,-0.23772 -15.15235,-0.14258 -5.00505,0.0951 -10.10001,2.6e-4 -15.2871,-0.28515 v -3.28321 c 0.091,-1.04652 0.091,-2.09214 0,-3.13867 -0.36402,-2.75903 -2.4e-4,-5.1388 1.09179,-7.13672 1.18302,-2.09305 2.68386,-3.99453 4.50391,-5.70703 2.18401,-1.99792 4.5496,-3.56927 7.09766,-4.71093 2.548,-1.23681 5.23364,-2.18755 8.05468,-2.85352 0.72804,-0.19027 1.50132,-0.38003 2.32032,-0.57031 0.81899,-0.19027 1.63798,-0.38003 2.45703,-0.57032 v -17.125 h -2.1836 c -0.63702,-0.0951 -1.27508,-0.0951 -1.91211,0 -3.18503,0.57084 -6.32394,1.37926 -9.41797,2.42579 -3.09407,0.95139 -6.09771,2.2342 -9.00976,3.85156 -0.819,0.47569 -1.7732,0.9046 -2.86524,1.28515 v -26.82812 h 2.04688 c 0.72801,-0.0951 1.40985,-0.14453 2.04687,-0.14453 3.82204,-0.0952 7.59901,-0.14258 11.33008,-0.14258 h 11.4668 c 0.72801,0 1.40985,-0.0474 2.04687,-0.14258 0.63698,-0.0951 1.31884,-0.19001 2.04688,-0.28515 0.091,-2.94931 0.13672,-5.75604 0.13672,-8.41993 0.091,-2.75903 0.0452,-5.66063 -0.13672,-8.70507 h -12.01172 c -2.09305,0.0951 -4.14054,0.14257 -6.14258,0.14257 h -6.00586 -6.00586 c -1.91103,-0.0951 -3.82139,-0.0951 -5.73242,0 -2.00201,0 -4.00384,-0.0474 -6.00586,-0.14257 -0.50051,-0.0238 -0.99932,-0.0333 -1.49414,-0.0274 z m -472.67969,0.0996 c -2.75279,0 -5.49456,0.0227 -8.2246,0.0703 -0.27301,6.75487 -0.41016,13.46332 -0.41016,20.12305 0,6.65973 -0.0438,13.36623 -0.13477,20.12109 -0.091,6.37431 -0.18242,12.60642 -0.27343,18.69532 0,6.08889 -0.0457,12.321 -0.13672,18.69531 0,3.23472 -0.0457,6.42096 -0.13672,9.56055 v 9.56054 c 0,1.42709 0.13715,2.33234 0.41015,2.71289 0.36401,0.38056 1.18301,0.57032 2.45704,0.57032 3.82205,0.19028 7.64278,0.19028 11.46484,0 1.274,0 2.00352,-0.14232 2.18555,-0.42774 0.27298,-0.38056 0.49961,-1.23641 0.68164,-2.56836 v -4.71093 c 0.18202,-10.65557 0.27343,-21.11953 0.27343,-31.39454 0.091,-10.37014 0.18243,-20.8835 0.27344,-31.53906 0,-0.76111 0.0438,-1.47465 0.13477,-2.14062 0.091,-0.76111 0.18242,-1.61698 0.27344,-2.56836 0.728,0.47569 1.36609,0.8552 1.9121,1.14062 0.54601,0.19028 1.045,0.47687 1.5,0.85742 l 5.1875,4.28125 c 1.72903,1.42709 3.32133,2.94904 4.77735,4.56641 6.09709,7.13542 10.64736,14.74717 13.65039,22.83398 3.09404,8.08682 5.00636,16.83906 5.73437,26.25782 0.18203,2.09305 0.27149,4.18624 0.27149,6.27929 v 6.2793 c 0,0.76111 0.0914,1.47465 0.27344,2.14063 0.273,0.57083 0.91109,0.85546 1.9121,0.85546 h 14.60547 c 0.091,-0.95139 0.18243,-1.7598 0.27344,-2.42578 0.091,-0.66597 0.13477,-1.33207 0.13477,-1.99804 0,-16.17363 0.0457,-32.10872 0.13672,-47.80664 0.091,-15.79307 -0.0442,-31.73011 -0.40821,-47.8086 h -16.65429 c -0.18203,5.32778 -0.27344,10.60916 -0.27344,15.8418 0.091,5.1375 -0.0442,10.36948 -0.4082,15.69726 -4.36807,-5.99375 -9.19068,-11.22573 -14.46876,-15.69726 -5.18707,-4.56667 -11.19443,-8.0395 -18.01953,-10.41797 -0.18199,-1.04653 -0.31914,-1.99726 -0.41015,-2.85352 0,-0.85625 -0.0895,-1.7615 -0.27149,-2.71289 -2.77554,-0.0476 -5.54017,-0.0703 -8.29297,-0.0703 z m 261.49414,0.0352 c -2.0646,0 -4.15373,0.10625 -6.26953,0.32031 -1.54698,9.60904 -3.04983,19.12421 -4.50586,28.54297 -1.45602,9.32362 -2.91116,18.74196 -4.36718,28.25586 -1.91103,-4.28125 -3.32242,-8.7997 -4.23243,-13.55664 -0.91,-4.75695 -2.00136,-9.41966 -3.27539,-13.98633 -0.455,-1.42708 -0.95593,-3.23368 -1.50195,-5.42188 -0.455,-2.18819 -0.91023,-3.99674 -1.36523,-5.42382 -0.0912,-0.19029 -0.18248,-0.28516 -0.27344,-0.28516 h -1.22852 -15.83398 c -1.63802,6.56459 -3.27604,13.03389 -4.91406,19.4082 -1.63804,6.37431 -3.27603,12.79618 -4.91407,19.26563 -1.82002,-9.5139 -3.45804,-18.97968 -4.91406,-28.39844 -1.45602,-9.41875 -3.0026,-18.83905 -4.64062,-28.25781 -1.09202,-0.0952 -2.45573,-0.14258 -4.09375,-0.14258 -1.54702,-0.0951 -3.14128,-0.14258 -4.7793,-0.14258 -1.63802,0 -3.1846,0.0474 -4.64063,0.14258 -1.36501,0 -2.36494,0.0474 -3.00195,0.14258 -0.091,0.47569 0.0442,2.18936 0.40821,5.13867 0.455,2.94931 1.00166,6.75421 1.63867,11.41602 0.637,4.6618 1.41029,9.89574 2.32031,15.69921 0.91001,5.70834 1.82046,11.60642 2.73047,17.69532 1.00101,5.99375 1.95717,11.89183 2.86719,17.69531 0.91001,5.70834 1.77278,10.89288 2.59179,15.55469 l 2.04883,11.41797 c 0.54599,2.9493 0.90978,4.61358 1.0918,4.99414 h 13.24023 2.1836 c 0.54601,-0.0951 0.9555,-0.23745 1.22851,-0.42774 0.36405,-0.28542 0.59263,-0.66688 0.6836,-1.14258 0.18199,-0.47569 0.40863,-1.18923 0.68164,-2.14062 1.63802,-6.65973 3.27604,-13.0816 4.91406,-19.26563 1.63802,-6.27917 3.32175,-12.79591 5.05078,-19.55078 0.091,-0.57083 0.40909,-1.61644 0.95508,-3.13867 0.72801,2.66389 1.36609,5.13659 1.91211,7.41992 0.54601,2.28334 1.09073,4.51884 1.63672,6.70703 1.27402,4.85209 2.45875,9.56224 3.55078,14.12891 1.18299,4.47153 2.41152,9.13229 3.68554,13.98437 0.45501,1.71251 0.8645,2.71263 1.22852,2.99805 0.36399,0.28542 1.36393,0.42774 3.00195,0.42774 h 7.64453 6.2793 c 0.182,-0.66598 0.54581,-2.52197 1.0918,-5.56641 0.63702,-3.13959 1.31886,-7.03936 2.04687,-11.70117 0.72802,-4.75695 1.54702,-9.98893 2.45703,-15.69727 1.00102,-5.80347 1.95718,-11.70351 2.86719,-17.69726 0.91001,-5.99375 1.77475,-11.8444 2.59375,-17.55274 0.81902,-5.80347 1.54659,-10.94058 2.18359,-15.41211 0.72804,-4.56667 1.27468,-8.32413 1.63868,-11.27343 0.36397,-2.94931 0.49916,-4.61554 0.4082,-4.9961 -2.63904,0 -5.32271,-0.0474 -8.05273,-0.14258 -0.68252,-0.0238 -1.36844,-0.0352 -2.05665,-0.0352 z m -374.552729,0.0352 c -0.546009,0 -1.090711,0.0474 -1.636719,0.14258 -0.455007,0 -1.047381,0.0474 -1.775391,0.14258 -1.729025,16.83959 -3.458474,33.44274 -5.1875,49.80664 -1.729028,16.26876 -3.502241,32.91739 -5.322265,49.94727 3.094044,0.0951 6.006289,0.14257 8.736328,0.14257 2.730041,0 5.505127,-0.0949 8.326172,-0.28515 1.092013,-10.27501 2.183374,-20.26458 3.27539,-29.96875 1.092017,-9.79931 2.185328,-19.74144 3.277344,-29.82617 0.182002,-0.0951 0.408635,-0.14258 0.681641,-0.14258 1.274018,4.56667 2.593965,9.13255 3.958984,13.69922 1.365019,4.56667 2.684964,9.22938 3.958984,13.98633 h 16.925782 c 1.274018,0 2.047309,-0.14232 2.320312,-0.42774 0.364006,-0.28541 0.773509,-1.09383 1.228516,-2.42578 0.72801,-2.37847 1.36415,-4.71081 1.910156,-6.99414 0.637012,-2.28334 1.320818,-4.56627 2.048828,-6.84961 0.546008,-1.99792 1.090711,-3.94879 1.636719,-5.85156 0.546008,-1.99792 1.092664,-3.94683 1.638672,-5.84961 0.364004,0.28541 0.546875,0.66493 0.546875,1.14062 0.637011,5.23265 1.227432,10.41719 1.773437,15.55469 0.546014,5.1375 1.092664,10.27656 1.638674,15.41406 0.45501,4.47153 0.91023,8.80022 1.36523,12.98633 0.45501,4.18611 0.91023,8.5148 1.36524,12.98633 0.182,1.33194 0.40863,2.14036 0.68164,2.42578 0.364,0.28542 1.18301,0.42773 2.45703,0.42773 1.00101,0.0951 1.95717,0.0951 2.86719,0 h 3.00195 8.05469 v -1.99804 c 0.091,-0.57084 0.091,-1.09462 0,-1.57032 -0.45501,-4.56667 -0.95595,-8.94279 -1.50196,-13.1289 -0.455,-4.28125 -0.91022,-8.70481 -1.36523,-13.27149 -1.18302,-11.22639 -2.36581,-22.35841 -3.54883,-33.39453 -1.09202,-11.13125 -2.22909,-22.30875 -3.41211,-33.53515 -0.182,-1.52223 -0.4563,-2.42552 -0.82031,-2.71094 -0.273,-0.28541 -1.13773,-0.47712 -2.59375,-0.57227 H 94.335938 c -1.820029,0 -2.957105,0.19171 -3.41211,0.57227 -0.364006,0.28542 -0.819226,1.33103 -1.365234,3.13867 -1.638025,5.99375 -3.276041,11.89184 -4.914063,17.69531 -1.638024,5.80348 -3.411235,11.60668 -5.322265,17.41016 -1.729026,-5.99376 -3.41276,-11.89184 -5.050782,-17.69531 -1.638027,-5.89862 -3.321755,-11.84414 -5.050781,-17.83789 -0.455005,-1.61736 -0.864509,-2.57005 -1.228515,-2.85547 -0.364007,-0.28542 -1.320167,-0.42774 -2.867188,-0.42774 z m 85.041019,0 c -1.63803,0 -3.18461,0.0949 -4.64063,0.28516 -1.36502,0.0951 -2.36689,0.2394 -3.0039,0.42969 -0.091,0.47569 -0.18048,2.18741 -0.27149,5.13672 -0.091,2.94931 -0.18243,6.7542 -0.27344,11.41601 v 15.55664 17.55274 17.69531 c 0.091,5.70834 0.13672,10.89288 0.13672,15.55469 0.091,4.56666 0.18243,8.32608 0.27344,11.27539 0.091,2.9493 0.18047,4.61358 0.27148,4.99414 5.36908,0.28541 10.64691,0.28541 15.83399,0 0.091,-0.57084 0.18242,-2.37939 0.27344,-5.42383 0.091,-3.13959 0.18242,-7.03936 0.27343,-11.70117 0.091,-4.66181 0.13672,-9.89379 0.13672,-15.69727 v -17.55468 -17.55274 c 0,-5.70834 -0.0457,-10.84544 -0.13672,-15.41211 -0.091,-4.56667 -0.18242,-8.27669 -0.27343,-11.13086 -0.091,-2.94931 -0.18243,-4.61554 -0.27344,-4.99609 -0.91001,-0.19029 -2.13853,-0.28516 -3.68555,-0.28516 -1.45602,-0.0951 -3.0026,-0.14258 -4.64062,-0.14258 z m 575.90234,0.0723 c -1.91103,0 -3.82335,0.0227 -5.73437,0.0703 H 695.2168 c -1.27406,0 -2.22826,0.0474 -2.86524,0.14258 -0.63702,0 -1.13796,0.19171 -1.50195,0.57227 -0.27303,0.28541 -0.45591,0.7598 -0.54688,1.42578 v 2.85547 90.76171 1.99805 c 0.091,0.66597 0.13672,1.37951 0.13672,2.14063 h 16.51758 c 0.091,-0.76112 0.13672,-1.47466 0.13672,-2.14063 0.091,-0.66597 0.13672,-1.33207 0.13672,-1.99805 v -14.55664 c 0,-0.85625 0.0458,-1.47491 0.13672,-1.85547 0.0908,-0.47569 0.22603,-0.8552 0.4082,-1.14062 0.18202,-0.28541 0.45632,-0.47517 0.82031,-0.57031 0.45501,-0.19027 1.04545,-0.38198 1.77344,-0.57227 1.00102,-0.19027 1.7743,-0.0954 2.32031,0.28516 0.54602,0.38055 1.09266,0.8569 1.63867,1.42773 2.63902,2.75903 5.41413,5.32856 8.32618,7.70703 3.00306,2.37848 6.14192,4.56654 9.41797,6.56446 2.63904,1.61736 5.32465,2.997 8.05468,4.13867 2.73003,1.14167 5.59655,1.95008 8.59961,2.42578 1.09201,0.19027 2.18339,0.33259 3.27539,0.42773 1.09203,0.0951 2.2291,-0.0946 3.41211,-0.57031 v -15.69922 c -2.36603,-0.95139 -4.68589,-1.80725 -6.96094,-2.56836 -2.18401,-0.85625 -4.32298,-1.80698 -6.41601,-2.85351 -2.18404,-1.04653 -4.23155,-2.28386 -6.14258,-3.71094 -1.91103,-1.42708 -3.82139,-3.04392 -5.73242,-4.85156 0.81902,-0.4757 1.54659,-0.9046 2.18359,-1.28516 0.637,-0.38055 1.27509,-0.76007 1.91211,-1.14062 2.91203,-1.80765 5.59569,-3.80595 8.05274,-5.99414 2.45704,-2.28334 4.6417,-4.80542 6.55273,-7.56446 3.91305,-5.80347 6.14151,-11.74899 6.6875,-17.83789 0.63703,-6.18403 -0.22771,-12.51102 -2.59375,-18.98047 -2.54806,-7.04028 -7.27923,-11.60616 -14.19531,-13.69922 -7.00712,-2.09305 -13.92298,-3.18805 -20.74805,-3.2832 -1.91103,-0.0476 -3.82139,-0.0703 -5.73242,-0.0703 z m -148.65234,0.0703 c -0.63701,0 -1.27316,0.0474 -1.91016,0.14258 -0.54602,0.0951 -1.1841,0.19197 -1.91211,0.28711 v 99.60937 c 2.73005,-0.0951 5.46138,-0.14257 8.19141,-0.14257 2.73005,0.0951 5.55086,0.0951 8.46289,0 v -17.125 -3.42579 c 0.091,-0.76111 0.27386,-1.28294 0.54687,-1.56835 0.27299,-0.38055 0.72626,-0.6197 1.36328,-0.71485 0.72802,-0.19028 1.77561,-0.42747 3.14063,-0.71289 5.18707,-1.33194 10.14681,-3.14049 14.8789,-5.42383 4.82303,-2.28333 9.37333,-5.18493 13.6504,-8.70508 12.55821,-10.37014 17.24365,-23.7357 14.05859,-40.0996 -1.18302,-5.80348 -3.68575,-10.56107 -7.50781,-14.27149 -3.73105,-3.71042 -8.37081,-5.99336 -13.92188,-6.84961 -2.91205,-0.38054 -5.77857,-0.66713 -8.59961,-0.85742 -5.09609,-0.0951 -10.193,-0.14258 -15.28906,-0.14258 z m 15.69921,17.69727 h 17.33594 c 1.36502,0.19027 2.72874,0.47491 4.09375,0.85547 3.54908,1.04652 5.73374,3.42434 6.55274,7.13476 0.72798,3.52014 0.77374,6.89809 0.13672,10.13281 -0.54602,3.13959 -2.00311,6.04119 -4.36915,8.70508 -1.274,1.33195 -2.54826,2.61671 -3.82226,3.85352 -1.27405,1.14166 -2.68346,2.13984 -4.23047,2.99609 -2.36603,1.33195 -4.77735,2.52183 -7.23437,3.56836 -2.36604,1.04653 -4.77733,2.09214 -7.23438,3.13867 -0.455,0.19027 -1.00164,0.33455 -1.63867,0.42969 -0.637,0 -1.31886,0.0949 -2.04688,0.28516 -0.18217,-6.94515 -0.27343,-13.74848 -0.27343,-20.40821 0.091,-6.65972 0.13672,-13.36623 0.13672,-20.12109 0.54601,-0.19027 1.00124,-0.33259 1.36523,-0.42773 0.455,-0.0951 0.8645,-0.14258 1.22851,-0.14258 z m 143.73633,0.35547 c 1.45602,0 2.91117,0.0247 4.36719,0.0723 1.54701,0.0951 3.23076,0.47465 5.05078,1.14063 2.82107,1.04653 4.64194,3.04483 5.46094,5.99414 0.81902,3.61528 0.95422,7.0881 0.4082,10.41797 -0.54601,3.23472 -2.00115,6.2312 -4.36718,8.99023 -0.819,1.04653 -1.72945,2.04666 -2.73047,2.99805 -1.00102,0.95139 -2.04667,1.80724 -3.13868,2.56836 -2.54803,1.80764 -5.23364,3.42448 -8.05468,4.85156 -2.73006,1.42708 -5.64228,2.56953 -8.73633,3.42578 -0.36399,0.19027 -0.7278,0.33259 -1.0918,0.42774 -0.36404,0 -0.77351,0.0474 -1.22851,0.14257 -0.27299,0 -0.59109,-0.0949 -0.95508,-0.28515 -0.0912,-0.4757 -0.18248,-1.66558 -0.27344,-3.56836 -0.0912,-1.99792 -0.18248,-4.37574 -0.27344,-7.13477 v -8.84765 -8.99219 c 0,-2.85417 0.0458,-5.32686 0.13672,-7.41992 0.0912,-2.09306 0.18248,-3.52014 0.27344,-4.28125 l 1.0918,-0.28516 c 0.36404,-0.0951 0.7278,-0.14258 1.09179,-0.14258 h 8.59961 c 1.45602,-0.0476 2.91312,-0.0723 4.36914,-0.0723 z"
       transform="scale(0.26458333)"
       id="path912"
       clip-path="url(#clipPath1055)"
       inkscapeConnector-curvature="0" />
    <path
       style="font-style:normal;font-variant:normal;font-weight:normal;font-stretch:normal;font-size:18.00442696px;line-height:1.25;font-familyArial;-inkscape-font-specificationArial;letter-spacing:0px;word-spacing:0px;fill:#000000;fill-opacity:1;stroke:none;stroke-width:2.12650704;filter:url(#filter1065)"
       d="m 36.957031,305.36914 14.38086,43.78125 h 7.318359 l 11.498047,-33.35742 c 0.492911,-1.41355 1.02299,-3.1259 1.589844,-5.13672 0.172517,0.63709 0.739992,2.34944 1.701171,5.13672 l 11.421876,33.35742 h 6.914062 l 14.86133,-43.78125 h -7.208986 l -8.503906,28.13281 c -1.109052,3.58364 -2.00719,6.75802 -2.697266,9.52539 -0.862597,-4.83792 -2.267838,-10.00313 -4.214844,-15.49804 l -7.763672,-22.16016 h -8.65039 l -10.314454,29.56641 c -0.246455,0.71672 -1.059295,3.41314 -2.439453,8.09179 -0.640786,-2.96646 -1.405727,-5.95271 -2.292968,-8.95898 L 44.3125,305.36914 Z m 173.714849,0 v 43.78125 h 6.65429 v -17.35156 c 0,-2.48864 0.36806,-4.43997 1.10742,-5.85352 0.73937,-1.41355 1.97208,-2.52748 3.69727,-3.34375 1.74984,-0.83618 3.61038,-1.25586 5.58203,-1.25586 2.63708,0 4.67016,0.6172 6.09961,1.85157 1.45409,1.21445 2.18164,3.16578 2.18164,5.85351 v 20.09961 h 6.6543 v -20.09961 c 0,-3.10582 -0.46777,-5.47488 -1.4043,-7.10742 -0.91189,-1.63255 -2.43981,-2.90645 -4.58398,-3.82227 -2.14417,-0.93572 -4.66995,-1.40234 -7.57813,-1.40234 -4.73196,0 -8.65051,1.45265 -11.75586,4.35937 v -15.70898 z m 540.21874,0 v 9.70703 l 2.03321,23.20313 h 4.28906 l 1.92188,-23.20313 v -9.70703 z M 159.61719,306.35547 153,309.58008 v 7.85351 h -4.87891 v 4.18164 H 153 v 18.2461 c 0,3.22526 0.27225,5.34595 0.81445,6.36133 0.54221,0.99545 1.47773,1.80273 2.8086,2.41992 1.33086,0.61716 3.20387,0.92578 5.61914,0.92578 1.47874,0 3.15428,-0.15997 5.02734,-0.47852 l -0.96094,-4.74804 c -1.20763,0.13929 -2.18055,0.20898 -2.91992,0.20898 -0.98582,0 -1.75076,-0.12984 -2.29297,-0.38867 -0.51756,-0.25881 -0.89808,-0.60692 -1.14453,-1.04492 -0.22181,-0.43801 -0.33398,-1.42404 -0.33398,-2.95703 v -18.54493 h 6.6914 v -4.18164 h -6.6914 z m 206.24804,0 -6.61718,3.22461 v 7.85351 h -4.88086 v 4.18164 h 4.88086 v 18.2461 c 0,3.22526 0.27029,5.34595 0.8125,6.36133 0.5422,0.99545 1.47968,1.80273 2.81054,2.41992 1.33087,0.61716 3.20388,0.92578 5.61914,0.92578 1.47874,0 3.15428,-0.15997 5.02735,-0.47852 l -0.96094,-4.74804 c -1.20763,0.13929 -2.18251,0.20898 -2.92187,0.20898 -0.98583,0 -1.74882,-0.12984 -2.29102,-0.38867 -0.51756,-0.25881 -0.90003,-0.60692 -1.14648,-1.04492 -0.22181,-0.43801 -0.33204,-1.42404 -0.33204,-2.95703 v -18.54493 h 6.69141 v -4.18164 h -6.69141 z m 248.24219,0 -6.61719,3.22461 v 7.85351 h -4.88085 v 4.18164 h 4.88085 v 18.2461 c 0,3.22526 0.27029,5.34595 0.8125,6.36133 0.54222,0.99545 1.4797,1.80273 2.81055,2.41992 1.33087,0.61716 3.20387,0.92578 5.61914,0.92578 1.47873,0 3.15426,-0.15997 5.02735,-0.47852 l -0.96094,-4.74804 c -1.20764,0.13929 -2.18055,0.20898 -2.91992,0.20898 -0.98583,0 -1.75076,-0.12984 -2.29297,-0.38867 -0.51757,-0.25881 -0.90006,-0.60692 -1.14649,-1.04492 -0.22173,-0.43801 -0.33203,-1.42404 -0.33203,-2.95703 v -18.54493 h 6.69141 v -4.18164 h -6.69141 z m -487.83594,10.36328 c -3.37644,0 -6.34506,0.37822 -8.9082,1.13477 -2.56314,0.73664 -4.52339,1.80167 -5.8789,3.19531 -1.35551,1.37373 -2.32843,3.18387 -2.91993,5.43359 l 6.50586,0.7168 c 0.71473,-2.24973 1.81228,-3.8115 3.29102,-4.6875 1.50338,-0.89591 3.81923,-1.34375 6.94922,-1.34375 3.3518,0 5.87953,0.60586 7.58007,1.82031 1.25693,0.89591 1.88477,2.43891 1.88477,4.62891 0,0.19909 -0.0124,0.66766 -0.0371,1.40429 -2.5385,0.71673 -6.49444,1.33393 -11.86719,1.85157 -2.63708,0.25881 -4.60784,0.52791 -5.91406,0.80664 -1.77448,0.39818 -3.37719,0.98526 -4.80664,1.76172 -1.4048,0.77645 -2.55026,1.81137 -3.4375,3.10547 -0.8626,1.27417 -1.29492,2.68733 -1.29492,4.24023 0,2.64793 1.15792,4.82884 3.47461,6.54101 2.31669,1.69229 5.63233,2.53907 9.94531,2.53907 2.61244,0 5.05292,-0.35004 7.32031,-1.04688 2.29204,-0.69681 4.67021,-1.88977 7.13477,-3.58203 0.19716,1.49318 0.64,2.7972 1.33008,3.91211 h 6.95117 c -0.83795,-1.21447 -1.40543,-2.47897 -1.70117,-3.79297 -0.2711,-1.3339 -0.40625,-4.49891 -0.40625,-9.49609 v -7.16797 c 0,-2.38909 -0.11218,-4.04121 -0.33399,-4.95703 -0.39433,-1.47327 -1.08449,-2.68889 -2.07031,-3.64453 -0.98582,-0.97555 -2.52426,-1.78088 -4.61914,-2.41797 -2.09488,-0.63709 -4.82007,-0.95508 -8.17188,-0.95508 z m 62.4043,0 c -3.37645,0 -6.50709,0.64536 -9.39062,1.93945 -2.85889,1.27419 -4.99169,3.1954 -6.39649,5.76368 -1.4048,2.56827 -2.10547,5.56586 -2.10547,8.99023 0,5.29583 1.62569,9.3659 4.87891,12.21289 3.27787,2.8271 7.60382,4.24219 12.97656,4.24219 4.28834,0 7.89921,-1.02553 10.83203,-3.07617 2.95748,-2.07056 4.79309,-4.92891 5.50782,-8.57227 l -6.54297,-0.68555 c -0.46827,2.68774 -1.57829,4.67857 -3.32813,5.97266 -1.74984,1.29409 -3.93053,1.94141 -6.54297,1.94141 -3.25322,0 -5.89116,-0.9653 -7.91211,-2.89649 -2.02093,-1.93119 -3.03125,-5.02852 -3.03125,-9.28906 0,-4.20082 1.04771,-7.26608 3.14258,-9.19727 2.09488,-1.95109 4.81812,-2.92773 8.16992,-2.92773 2.21811,0 4.10358,0.53819 5.65625,1.61328 1.57732,1.07509 2.67488,2.67832 3.29102,4.80859 l 6.46875,-0.80664 c -0.76401,-3.20536 -2.50187,-5.67415 -5.21289,-7.40625 -2.71102,-1.75199 -6.19725,-2.62695 -10.46094,-2.62695 z m 101.07031,0 c -4.85518,0 -8.9712,1.17417 -12.34765,3.52344 -4.04188,2.82709 -6.0625,7.17759 -6.0625,13.05078 0,5.35555 1.688,9.45574 5.06445,12.30273 3.40109,2.84702 7.84973,4.27149 13.3457,4.27149 3.42574,0 6.58131,-0.64732 9.46485,-1.94141 2.90818,-1.29409 5.1138,-3.10616 6.61718,-5.43555 1.52803,-2.34926 2.29102,-5.56511 2.29102,-9.64648 0,-5.037 -1.71293,-8.97917 -5.13867,-11.82617 -3.42574,-2.86691 -7.83699,-4.29883 -13.23438,-4.29883 z m 164.14063,0 c -4.85518,0 -8.97118,1.17417 -12.34766,3.52344 -4.04187,2.82709 -6.0625,7.17759 -6.0625,13.05078 0,5.35555 1.688,9.45574 5.06446,12.30273 3.40112,2.84702 7.84974,4.27149 13.3457,4.27149 3.42574,0 6.57936,-0.64732 9.46289,-1.94141 2.90819,-1.29409 5.11382,-3.10616 6.61719,-5.43555 1.52803,-2.34926 2.29297,-5.56511 2.29297,-9.64648 0,-5.037 -1.71294,-8.97917 -5.13868,-11.82617 -3.42573,-2.86691 -7.83698,-4.29883 -13.23437,-4.29883 z m 82.69726,0 c -1.55268,0 -2.9809,0.35749 -4.2871,1.07422 -1.28157,0.71673 -2.68681,2.19949 -4.21485,4.44922 v -4.8086 h -5.98828 v 31.7168 h 6.6543 v -16.60547 c 0,-2.26963 0.37,-4.36021 1.10937,-6.27148 0.4929,-1.25428 1.31821,-2.22896 2.47656,-2.92578 1.15835,-0.71673 2.46389,-1.07618 3.91797,-1.07618 1.62661,0 3.25425,0.38956 4.88086,1.16602 l 2.29102,-4.98828 c -2.3167,-1.15473 -4.5971,-1.73047 -6.83985,-1.73047 z m 44.73243,0 c -2.04558,0 -3.96845,0.21825 -5.76758,0.65625 -1.77449,0.41809 -3.17778,0.93555 -4.21289,1.55273 -1.38016,0.79637 -2.47771,1.80117 -3.29102,3.01563 -0.78866,1.19454 -1.18359,2.49856 -1.18359,3.91211 0,1.55291 0.48022,2.97739 1.4414,4.27148 0.98583,1.27419 2.41601,2.27899 4.28907,3.01563 1.8977,0.71673 5.28616,1.5729 10.16601,2.56836 3.62293,0.73663 5.89089,1.34445 6.80274,1.82226 1.30625,0.69682 1.95898,1.65273 1.95898,2.86719 0,1.35381 -0.73997,2.53738 -2.21875,3.55273 -1.47873,0.99548 -3.74473,1.49415 -6.80078,1.49415 -3.03141,0 -5.3971,-0.56831 -7.09766,-1.70313 -1.67589,-1.13482 -2.69867,-2.7662 -3.06836,-4.89648 l -6.58203,0.83593 c 0.73938,3.36465 2.43985,5.90307 5.10157,7.61524 2.68638,1.71219 6.58196,2.56836 11.68359,2.56836 3.08069,0 5.83938,-0.42905 8.2793,-1.28516 2.43991,-0.87599 4.30237,-2.101 5.58398,-3.67383 1.30621,-1.59271 1.95899,-3.28435 1.95899,-5.07617 0,-1.83165 -0.53009,-3.36524 -1.58985,-4.59961 -1.05975,-1.23436 -2.52733,-2.16955 -4.40039,-2.80664 -1.84847,-0.657 -5.12473,-1.49245 -9.83203,-2.50781 -3.25322,-0.71674 -5.21346,-1.17592 -5.87891,-1.375 -1.15832,-0.37827 -2.00857,-0.85623 -2.55078,-1.43359 -0.54221,-0.55746 -0.8125,-1.18405 -0.8125,-1.88086 0,-1.09501 0.65276,-2.05092 1.95899,-2.86719 1.3062,-0.81628 3.48686,-1.22461 6.54297,-1.22461 2.58774,0 4.58348,0.45918 5.98828,1.375 1.42944,0.91582 2.2921,2.18972 2.58789,3.82226 l 6.50781,-0.71679 c -0.41897,-2.05064 -1.18393,-3.68399 -2.29297,-4.89844 -1.10909,-1.23437 -2.83449,-2.20905 -5.17578,-2.92578 -2.31673,-0.71673 -5.01501,-1.07422 -8.0957,-1.07422 z m 62.10742,0 c -5.42204,0 -9.83328,1.47142 -13.23438,4.41797 -3.40109,2.94655 -5.10156,7.08819 -5.10156,12.42383 0,5.15646 1.67553,9.16826 5.02734,12.03515 3.37646,2.84702 7.93533,4.27149 13.67774,4.27149 4.55944,0 8.30544,-0.89568 11.23828,-2.6875 2.93281,-1.79182 4.94099,-4.31145 6.02539,-7.55664 l -6.875,-0.6875 h -0.002 c -1.01047,2.26964 -2.37831,3.92372 -4.10352,4.95898 -1.72518,1.03529 -3.80615,1.55274 -6.24609,1.55274 -3.27786,0 -6.01355,-0.92579 -8.20703,-2.77735 -2.19349,-1.85154 -3.41373,-4.5198 -3.66016,-8.0039 h 29.2793 c 0.0252,-0.63709 0.0371,-1.11505 0.0371,-1.4336 0,-5.23609 -1.66309,-9.29677 -4.99024,-12.18359 -3.32717,-2.88682 -7.61572,-4.33008 -12.86523,-4.33008 z m 43.4375,0 c -2.56313,0 -4.74384,0.40638 -6.54297,1.22266 -1.79913,0.79636 -3.41431,2.00259 -4.84375,3.61523 v -4.12305 h -6.0625 v 43.8711 h 6.6543 v -15.43946 c 1.13368,1.15473 2.57632,2.11064 4.32617,2.86719 1.77449,0.75655 3.77018,1.13477 5.98828,1.13477 3.03141,0 5.91474,-0.68681 8.65039,-2.06055 2.76031,-1.39362 4.85571,-3.38447 6.28516,-5.97266 1.45408,-2.60809 2.18164,-5.53606 2.18164,-8.78125 0,-3.02618 -0.65474,-5.80357 -1.96094,-8.33203 -1.30623,-2.54836 -3.23961,-4.51847 -5.80273,-5.91211 -2.56315,-1.39363 -5.52124,-2.08984 -8.87305,-2.08984 z m 37.56055,0 c -2.04559,0 -3.96845,0.21825 -5.76758,0.65625 -1.77449,0.41809 -3.17974,0.93555 -4.21485,1.55273 -1.38015,0.79637 -2.47573,1.80117 -3.28906,3.01563 -0.78866,1.19454 -1.18359,2.49856 -1.18359,3.91211 0,1.55291 0.48019,2.97739 1.4414,4.27148 0.98583,1.27419 2.41601,2.27899 4.28907,3.01563 1.89767,0.71673 5.28616,1.5729 10.16601,2.56836 3.62291,0.73663 5.89084,1.34445 6.80274,1.82226 1.30623,0.69682 1.95898,1.65273 1.95898,2.86719 0,1.35381 -0.74,2.53738 -2.21875,3.55273 -1.47873,0.99548 -3.74668,1.49415 -6.80273,1.49415 -3.03141,0 -5.3971,-0.56831 -7.09766,-1.70313 -1.67589,-1.13482 -2.69867,-2.7662 -3.06836,-4.89648 l -6.58008,0.83593 c 0.73938,3.36465 2.43984,5.90307 5.10156,7.61524 2.68637,1.71219 6.57996,2.56836 11.68164,2.56836 3.0807,0 5.84134,-0.42905 8.28126,-1.28516 2.43991,-0.87599 4.30044,-2.101 5.58203,-3.67383 1.3062,-1.59271 1.95898,-3.28435 1.95898,-5.07617 0,-1.83165 -0.52814,-3.36524 -1.58789,-4.59961 -1.05975,-1.23436 -2.52731,-2.16955 -4.40039,-2.80664 -1.84842,-0.657 -5.12668,-1.49245 -9.83399,-2.50781 -3.25321,-0.71674 -5.2115,-1.17592 -5.87695,-1.375 -1.15832,-0.37827 -2.00857,-0.85623 -2.55078,-1.43359 -0.54224,-0.55746 -0.81445,-1.18405 -0.81445,-1.88086 0,-1.09501 0.65468,-2.05092 1.96094,-2.86719 1.3062,-0.81628 3.48691,-1.22461 6.54296,-1.22461 2.5878,0 4.58348,0.45918 5.98828,1.375 1.42945,0.91582 2.29213,2.18972 2.5879,3.82226 l 6.50586,-0.71679 c -0.41898,-2.05064 -1.18198,-3.68399 -2.29102,-4.89844 -1.10907,-1.23437 -2.83447,-2.20905 -5.17578,-2.92578 -2.3167,-0.71673 -5.01501,-1.07422 -8.0957,-1.07422 z m -408.6504,0.71484 v 19.65039 c 0,2.28954 0.13711,3.96239 0.40821,5.01758 0.39433,1.57281 1.07202,2.90695 2.0332,4.00196 0.98582,1.07509 2.47636,1.97078 4.47266,2.6875 2.02094,0.71674 4.18917,1.07617 6.50586,1.07617 5.24951,0 9.40292,-1.79332 12.45898,-5.37696 v 4.66016 h 5.95117 v -31.7168 h -6.65429 v 16.99414 c 0,2.70764 -0.37001,4.77748 -1.10938,6.21094 -0.71472,1.41356 -1.94547,2.53882 -3.69531,3.375 -1.74984,0.81628 -3.62285,1.22461 -5.61914,1.22461 -1.9963,0 -3.67379,-0.39894 -5.0293,-1.19531 -1.35551,-0.81628 -2.24118,-1.9302 -2.66016,-3.34375 -0.27109,-0.97555 -0.4082,-2.8686 -0.4082,-5.67578 v -17.58985 z m 80.55469,0 14.89844,31.77539 c -0.27112,0.57738 -0.46858,1.01584 -0.5918,1.31446 -0.93654,2.13027 -1.61423,3.46439 -2.0332,4.00195 -0.56685,0.71672 -1.29246,1.27368 -2.17969,1.67188 -0.88723,0.39817 -2.07203,0.59765 -3.55078,0.59765 -1.0844,0 -2.35255,-0.15997 -3.80664,-0.47851 l 0.73828,5.04687 c 1.57732,0.43799 3.0075,0.6582 4.28906,0.6582 2.11954,0 3.94269,-0.41772 5.47071,-1.2539 1.52803,-0.81627 2.88341,-2.1109 4.0664,-3.88281 0.88723,-1.314 2.13241,-3.71319 3.73438,-7.19727 l 14.93555,-32.25391 h -6.6543 L 417.25,335.91992 c -1.05975,2.34928 -1.97036,4.75784 -2.73438,7.22656 -0.83794,-2.56827 -1.78787,-5.01634 -2.84765,-7.3457 l -8.16992,-18.36719 z m 83.58594,0 v 19.65039 c 0,2.28954 0.13516,3.96239 0.40625,5.01758 0.39433,1.57281 1.07204,2.90695 2.0332,4.00196 0.98583,1.07509 2.47832,1.97078 4.47461,2.6875 2.02094,0.71674 4.18916,1.07617 6.50586,1.07617 5.24951,0 9.40294,-1.79332 12.45899,-5.37696 v 4.66016 h 5.95117 v -31.7168 h -6.6543 v 16.99414 c 0,2.70764 -0.37,4.77748 -1.10937,6.21094 -0.71474,1.41356 -1.94745,2.53882 -3.69727,3.375 -1.74985,0.81628 -3.62284,1.22461 -5.61914,1.22461 -1.9963,0 -3.67183,-0.39894 -5.02734,-1.19531 -1.35549,-0.81628 -2.24314,-1.9302 -2.66211,-3.34375 -0.2711,-0.97555 -0.40625,-2.8686 -0.40625,-5.67578 v -17.58985 z m 206.32031,3.49414 c 2.85889,0 5.31182,1.00676 7.35742,3.01758 2.07023,2.01082 3.10547,5.03658 3.10547,9.07813 0,4.24064 -1.06015,7.37552 -3.17969,9.40625 -2.09486,2.01083 -4.62064,3.01758 -7.57812,3.01758 -2.90817,0 -5.38606,-0.97665 -7.43164,-2.92774 -2.04558,-1.9511 -3.06836,-4.96746 -3.06836,-9.04883 0,-4.08136 1.08511,-7.18613 3.25391,-9.3164 2.19346,-2.15019 4.70677,-3.22657 7.54101,-3.22657 z m -42.73437,0.20899 c 3.37645,0 6.1246,1.03687 8.24414,3.10742 1.38013,1.33391 2.21791,3.33414 2.51367,6.00195 h -21.92383 c 0.22181,-2.76736 1.36921,-4.97645 3.43945,-6.6289 2.09487,-1.65246 4.67052,-2.48047 7.72657,-2.48047 z m -353.75196,0.0312 c 3.27787,0 6.01358,1.01419 8.20703,3.04492 2.21811,2.01082 3.32813,4.9783 3.32813,8.90039 0,4.161 -1.09755,7.25638 -3.29102,9.28711 -2.19345,2.03074 -4.94163,3.04688 -8.24414,3.04688 -3.32715,0 -6.08779,-1.00675 -8.28125,-3.01758 -2.19346,-2.03073 -3.28906,-5.07526 -3.28906,-9.13672 0,-4.06146 1.0956,-7.09856 3.28906,-9.10938 2.19346,-2.01082 4.9541,-3.01562 8.28125,-3.01562 z m 164.14063,0 c 3.27786,0 6.01357,1.01419 8.20703,3.04492 2.2181,2.01082 3.32617,4.9783 3.32617,8.90039 0,4.161 -1.0956,7.25638 -3.28906,9.28711 -2.19346,2.03074 -4.94164,3.04688 -8.24414,3.04688 -3.32719,0 -6.08779,-1.00675 -8.28125,-3.01758 -2.19341,-2.03073 -3.29102,-5.07526 -3.29102,-9.13672 0,-4.06146 1.09761,-7.09856 3.29102,-9.10938 2.19346,-2.01082 4.95406,-3.01562 8.28125,-3.01562 z m -319.14844,12.06445 v 1.9707 c 0,2.36919 -0.35754,4.16054 -1.07226,5.375 -0.93654,1.57281 -2.40215,2.81855 -4.39844,3.73438 -1.9963,0.8959 -4.2767,1.34375 -6.83985,1.34375 -2.58779,0 -4.5605,-0.47798 -5.91601,-1.43359 -1.33086,-0.95564 -1.9961,-2.15053 -1.9961,-3.58399 1e-5,-0.93573 0.30965,-1.78251 0.92579,-2.53906 0.61614,-0.77646 1.48935,-1.36354 2.62304,-1.76172 1.1337,-0.39818 3.06903,-0.75567 5.80469,-1.07422 4.83054,-0.55745 8.45387,-1.23488 10.86914,-2.03125 z m 616.44727,9.79492 v 6.12305 h 7.65429 v -6.12305 z"
       transform="scale(0.26458333)"
       id="path935"
       clip-path="url(#clipPath1051)"
       inkscapeConnector-curvature="0" />
  </g>
</svg>
