<?xml version="1.0" encoding="UTF-8"?>
<svg width="191.08mm" height="46.307mm" version="1.1" viewBox="0 0 191.07619 46.30706" xmlns="http://www.w3.org/2000/svg" xmlns:cc="http://creativecommons.org/ns#" xmlns:dc="http://purl.org/dc/elements/1.1/" xmlns:rdf="http://www.w3.org/1999/02/22-rdf-syntax-ns#">
<defs>
<clipPath id="d">
<rect x="32.143" y="182.52" width="733.57" height="183.57" fill="#f4a730"/>
</clipPath>
<clipPath id="c">
<rect x="32.143" y="182.52" width="733.57" height="183.57" fill="#f4a730"/>
</clipPath>
<filter id="b" color-interpolation-filters="sRGB">
<feColorMatrix result="fbSourceGraphic" values="1 0 0 0 0 0 1 0 0 0 0 0 1 0 0 -0.21 -0.72 -0.07 2 0 "/>
<feColorMatrix in="fbSourceGraphic" result="fbSourceGraphicAlpha" values="0 0 0 -1 0 0 0 0 -1 0 0 0 0 -1 0 0 0 0 1 0"/>
<feColorMatrix in="fbSourceGraphic" result="fbSourceGraphic" values="1 0 0 0 0 0 1 0 0 0 0 0 1 0 0 -0.21 -0.72 -0.07 2 0 "/>
<feColorMatrix in="fbSourceGraphic" result="fbSourceGraphicAlpha" values="0 0 0 -1 0 0 0 0 -1 0 0 0 0 -1 0 0 0 0 1 0"/>
<feColorMatrix in="fbSourceGraphic" result="fbSourceGraphic" values="1 0 0 0 0 0 1 0 0 0 0 0 1 0 0 -0.21 -0.72 -0.07 2 0 "/>
<feColorMatrix in="fbSourceGraphic" result="fbSourceGraphicAlpha" values="0 0 0 -1 0 0 0 0 -1 0 0 0 0 -1 0 0 0 0 1 0"/>
<feColorMatrix in="fbSourceGraphic" result="fbSourceGraphic" values="1 0 0 0 0 0 1 0 0 0 0 0 1 0 0 -0.21 -0.72 -0.07 2 0 "/>
<feColorMatrix in="fbSourceGraphic" result="fbSourceGraphicAlpha" values="0 0 0 -1 0 0 0 0 -1 0 0 0 0 -1 0 0 0 0 1 0"/>
<feColorMatrix in="fbSourceGraphic" result="color2" values="-1 0 0 0 1 0 -1 0 0 1 0 0 -1 0 1 -0.21 -0.72 -0.07 2 0 "/>
</filter>
<filter id="a" color-interpolation-filters="sRGB">
<feColorMatrix result="fbSourceGraphic" values="1 0 0 0 0 0 1 0 0 0 0 0 1 0 0 -0.21 -0.72 -0.07 2 0 "/>
<feColorMatrix in="fbSourceGraphic" result="fbSourceGraphicAlpha" values="0 0 0 -1 0 0 0 0 -1 0 0 0 0 -1 0 0 0 0 1 0"/>
<feColorMatrix in="fbSourceGraphic" result="fbSourceGraphic" values="1 0 0 0 0 0 1 0 0 0 0 0 1 0 0 -0.21 -0.72 -0.07 2 0 "/>
<feColorMatrix in="fbSourceGraphic" result="fbSourceGraphicAlpha" values="0 0 0 -1 0 0 0 0 -1 0 0 0 0 -1 0 0 0 0 1 0"/>
<feColorMatrix in="fbSourceGraphic" result="fbSourceGraphic" values="1 0 0 0 0 0 1 0 0 0 0 0 1 0 0 -0.21 -0.72 -0.07 2 0 "/>
<feColorMatrix in="fbSourceGraphic" result="fbSourceGraphicAlpha" values="0 0 0 -1 0 0 0 0 -1 0 0 0 0 -1 0 0 0 0 1 0"/>
<feColorMatrix in="fbSourceGraphic" result="fbSourceGraphic" values="1 0 0 0 0 0 1 0 0 0 0 0 1 0 0 -0.21 -0.72 -0.07 2 0 "/>
<feColorMatrix in="fbSourceGraphic" result="fbSourceGraphicAlpha" values="0 0 0 -1 0 0 0 0 -1 0 0 0 0 -1 0 0 0 0 1 0"/>
<feColorMatrix in="fbSourceGraphic" result="color2" values="-1 0 0 0 1 0 -1 0 0 1 0 0 -1 0 1 -0.21 -0.72 -0.07 2 0 "/>
</filter>
</defs>
<metadata>
<rdf:RDF>
<cc:Work rdf:about="">
<dc:format>image/svg+xml</dc:format>
<dc:type rdf:resource="http://purl.org/dc/dcmitype/StillImage"/>
<dc:title/>
</cc:Work>
</rdf:RDF>
</metadata>
<g transform="translate(-9.7782 -49.478)">
<path transform="scale(.26458)" d="m319.84 187.01c-1.4105-0.0238-2.8219 0.0123-4.2324 0.10742-3.731 0.19028-7.2337 1.0936-10.51 2.7109-3.185 1.5222-6.0058 3.568-8.4629 6.1367s-4.4151 5.5178-5.8711 8.8477c-1.365 3.3299-2.0469 6.8501-2.0469 10.561 0.091 8.3722 3.367 15.413 9.8281 21.121 2.184 1.9028 4.4601 3.7113 6.8262 5.4238l7.0977 4.8516c1.274 0.85625 2.5025 1.6647 3.6855 2.4258s2.2744 1.6644 3.2754 2.7109c2.093 1.9979 3.2301 4.2828 3.4121 6.8516 0.18201 2.5688-0.637 5.0414-2.457 7.4199-1.729 2.2833-4.186 3.8053-7.3711 4.5664-4.9141 1.2368-10.055 1.4266-15.424 0.57031-0.72801-0.19028-1.4099-0.28515-2.0469-0.28515s-1.3665-0.0949-2.1856-0.28516v13.414c0 0.85626 0.2743 1.4275 0.82031 1.7129s1.1364 0.47713 1.7734 0.57227c2.548 0.28542 5.0508 0.61749 7.5078 0.99805 2.548 0.28541 5.0508 0.42773 7.5078 0.42773 6.6431 0 12.422-1.7592 17.336-5.2793 5.0051-3.6153 8.5077-8.5626 10.51-14.842 0.36399-1.2368 0.59258-2.4267 0.68359-3.5684 0.18201-1.2368 0.40864-2.4741 0.68164-3.7109v-1.4258c-0.18198-1.1417-0.3629-2.2367-0.54492-3.2832-0.091-1.0465-0.27387-2.0922-0.54688-3.1387-0.72801-3.0444-1.8651-5.7563-3.4121-8.1348-1.456-2.3785-3.3207-4.5191-5.5957-6.4219-2.184-1.7125-4.4144-3.3768-6.6894-4.9941s-4.5054-3.2362-6.6894-4.8535c-1.274-0.76111-2.5025-1.5221-3.6856-2.2832-1.183-0.85624-2.2744-1.7595-3.2754-2.7109-2.366-2.1882-3.6402-4.6135-3.8223-7.2774-0.182-2.6639 0.77416-5.2334 2.8672-7.707 1.729-2.0931 3.9575-3.4253 6.6875-3.9961 2.457-0.66597 4.8703-1.0929 7.2363-1.2832 2.457-0.19027 4.9578-0.048 7.5059 0.42774 0.81901 0.19028 1.638 0.33259 2.457 0.42773 0.81901 0 1.7294 0.0949 2.7305 0.28516v-6.2793c0.091-2.093 0.091-4.1388 0-6.1367 0-1.3319-0.1352-2.1404-0.40821-2.4258-0.273-0.38055-1.092-0.66518-2.457-0.85547-2.821-0.47569-5.6438-0.85716-8.4648-1.1426-1.4105-0.14272-2.82-0.22622-4.2305-0.25zm-81.482 0.22265c-1.4845 0.0178-2.9437 0.16966-4.377 0.45508-0.091 0.85625-0.18243 2.902-0.27344 6.1367-0.091 3.1396-0.18243 7.0888-0.27344 11.846-0.091 4.6618-0.13672 9.8938-0.13672 15.697v34.678c0 5.6132 0.0457 10.655 0.13672 15.127 0.091 4.4715 0.18243 8.1361 0.27344 10.99 0.091 2.8542 0.18242 4.471 0.27344 4.8516 0.637 0.0951 2.1836 0.19001 4.6406 0.28516 2.548 0 5.506 0.0474 8.873 0.14258h10.783c3.8221-0.0952 7.3704-0.19002 10.646-0.28516 3.276-0.0951 6.0531-0.19001 8.3281-0.28516 2.366-0.0951 3.7755-0.19001 4.2305-0.28515 0.18202-1.0465 0.27344-2.3787 0.27344-3.9961 0.091-1.6174 0.13671-3.2362 0.13671-4.8535 1e-5 -1.6174-0.0914-3.1393-0.27343-4.5664-0.091-1.4271-0.27192-2.5201-0.54492-3.2812-5.0051-0.19028-10.056-0.23772-15.152-0.14258-5.0051 0.0951-10.102 2.6e-4 -15.289-0.28515v-3.2832c0.091-1.0465 0.091-2.0921 0-3.1387-0.364-2.759-2.2e-4 -5.1388 1.0918-7.1367 1.183-2.093 2.6858-3.9945 4.5059-5.707 2.184-1.9979 4.5496-3.5693 7.0976-4.7109 2.548-1.2368 5.2317-2.1876 8.0527-2.8535 0.72801-0.19027 1.5032-0.38003 2.3223-0.57031 0.81902-0.19027 1.638-0.38003 2.457-0.57032v-17.125h-2.1855c-0.63701-0.0951-1.2732-0.0951-1.9102 0-3.185 0.57084-6.3259 1.3793-9.4199 2.4258-3.094 0.95139-6.0958 2.2342-9.0078 3.8516-0.81902 0.47569-1.7752 0.9046-2.8672 1.2852v-26.828h2.0469c0.72801-0.0951 1.4118-0.14453 2.0488-0.14453 3.8221-0.0952 7.599-0.14258 11.33-0.14258h11.465c0.72801 0 1.4118-0.0474 2.0488-0.14258 0.63701-0.0951 1.3189-0.19001 2.0469-0.28515 0.091-2.9493 0.13671-5.756 0.13671-8.4199 0.091-2.759 0.0453-5.6606-0.13671-8.7051h-12.012c-2.093 0.0951-4.1406 0.14257-6.1426 0.14257h-12.014c-1.911-0.0951-3.8214-0.0951-5.7324 0-2.002 0-4.0038-0.0474-6.0059-0.14257-0.50051-0.0238-0.99737-0.0333-1.4922-0.0274zm209.8 0c-1.4845 0.0178-2.9437 0.16966-4.377 0.45508-0.0912 0.85625-0.18248 2.902-0.27344 6.1367-0.0912 3.1396-0.18247 7.0888-0.27343 11.846-0.091 4.6618-0.13672 9.8938-0.13672 15.697v34.678c0 5.6132 0.0457 10.655 0.13672 15.127 0.0912 4.4715 0.18247 8.1361 0.27343 10.99 0.0912 2.8542 0.18248 4.471 0.27344 4.8516 0.63703 0.0951 2.1836 0.19001 4.6406 0.28516 2.548 0 5.506 0.0474 8.873 0.14258h10.783c3.8221-0.0952 7.3724-0.19002 10.648-0.28516 3.276-0.0951 6.0511-0.19001 8.3262-0.28516 2.366-0.0951 3.7755-0.19001 4.2305-0.28515 0.18192-1.0465 0.27344-2.3787 0.27344-3.9961 0.091-1.6174 0.13672-3.2362 0.13672-4.8535 0-1.6174-0.0913-3.1393-0.27344-4.5664-0.091-1.4271-0.27191-2.5201-0.54492-3.2812-5.0051-0.19028-10.056-0.23772-15.152-0.14258-5.0051 0.0951-10.102 2.6e-4 -15.289-0.28515v-3.2832c0.091-1.0465 0.091-2.0921 0-3.1387-0.36399-2.759-1.8e-4 -5.1388 1.0918-7.1367 1.183-2.093 2.6858-3.9945 4.5059-5.707 2.184-1.9979 4.5496-3.5693 7.0977-4.7109 2.548-1.2368 5.2317-2.1876 8.0527-2.8535 0.72799-0.19027 1.5033-0.38003 2.3223-0.57031 0.81902-0.19027 1.638-0.38003 2.457-0.57032v-17.125h-2.1836c-0.63702-0.0951-1.2751-0.0951-1.9121 0-3.185 0.57084-6.3239 1.3793-9.418 2.4258-3.0941 0.95139-6.0977 2.2342-9.0098 3.8516-0.81902 0.47569-1.7752 0.9046-2.8672 1.2852v-26.828h2.0488c0.72799-0.0951 1.4098-0.14453 2.0469-0.14453 3.822-0.0952 7.599-0.14258 11.33-0.14258h11.467c0.72801 0 1.4099-0.0474 2.0469-0.14258 0.63702-0.0951 1.3189-0.19001 2.0469-0.28515 0.091-2.9493 0.13672-5.756 0.13672-8.4199 0.0912-2.759 0.0455-5.6606-0.13672-8.7051h-12.012c-2.093 0.0951-4.1406 0.14257-6.1426 0.14257h-12.012c-1.911-0.0951-3.8233-0.0951-5.7344 0-2.002 0-4.0038-0.0474-6.0059-0.14257-0.50051-0.0238-0.99736-0.0333-1.4922-0.0274zm58.422 0c-1.4844 0.0178-2.9437 0.16966-4.377 0.45508-0.0912 0.85625-0.18247 2.902-0.27343 6.1367-0.0912 3.1396-0.18053 7.0888-0.27149 11.846-0.091 4.6618-0.13672 9.8938-0.13672 15.697v34.678c0 5.6132 0.0458 10.655 0.13672 15.127 0.0912 4.4715 0.18053 8.1361 0.27149 10.99 0.0912 2.8542 0.18247 4.471 0.27343 4.8516 0.63698 0.0951 2.1855 0.19001 4.6426 0.28516 2.5481 0 5.504 0.0474 8.8711 0.14258h10.785c3.8221-0.0952 7.3704-0.19002 10.646-0.28516 3.276-0.0951 6.0511-0.19001 8.3262-0.28516 2.366-0.0951 3.7774-0.19001 4.2324-0.28515 0.18217-1.0465 0.27344-2.3787 0.27344-3.9961 0.091-1.6174 0.13672-3.2362 0.13672-4.8535 0-1.6174-0.0913-3.1393-0.27344-4.5664-0.091-1.4271-0.27387-2.5201-0.54687-3.2812-5.0051-0.19028-10.056-0.23772-15.152-0.14258-5.0051 0.0951-10.1 2.6e-4 -15.287-0.28515v-3.2832c0.091-1.0465 0.091-2.0921 0-3.1387-0.36399-2.759-2.3e-4 -5.1388 1.0918-7.1367 1.183-2.093 2.6839-3.9945 4.5039-5.707 2.184-1.9979 4.5516-3.5693 7.0996-4.7109 2.548-1.2368 5.2317-2.1876 8.0527-2.8535 0.72801-0.19027 1.5013-0.38003 2.3203-0.57031 0.819-0.19027 1.638-0.38003 2.457-0.57032v-17.125h-2.1836c-0.637-0.0951-1.2751-0.0951-1.9121 0-3.185 0.57084-6.3239 1.3793-9.418 2.4258-3.094 0.95139-6.0977 2.2342-9.0098 3.8516-0.819 0.47569-1.7732 0.9046-2.8652 1.2852v-26.828h2.0469c0.72803-0.0951 1.4099-0.14453 2.0469-0.14453 3.8221-0.0952 7.599-0.14258 11.33-0.14258h11.467c0.72798 0 1.4098-0.0474 2.0469-0.14258 0.637-0.0951 1.3208-0.19001 2.0488-0.28515 0.091-2.9493 0.13476-5.756 0.13476-8.4199 0.0912-2.759 0.0474-5.6606-0.13476-8.7051h-12.014c-2.093 0.0951-4.1405 0.14257-6.1426 0.14257h-12.012c-1.911-0.0951-3.8214-0.0951-5.7324 0-2.002 0-4.0038-0.0474-6.0059-0.14257-0.5005-0.0238-0.99933-0.0333-1.4941-0.0274zm130.5 0c-1.4845 0.0178-2.9437 0.16966-4.377 0.45508-0.0912 0.85625-0.18248 2.902-0.27344 6.1367-0.091 3.1396-0.18052 7.0888-0.27148 11.846-0.091 4.6618-0.13672 9.8938-0.13672 15.697v34.678c0 5.6132 0.0458 10.655 0.13672 15.127 0.091 4.4715 0.18052 8.1361 0.27148 10.99 0.0912 2.8542 0.18248 4.471 0.27344 4.8516 0.637 0.0951 2.1855 0.19001 4.6426 0.28516 2.548 0 5.504 0.0474 8.8711 0.14258h10.785c3.8221-0.0952 7.3704-0.19002 10.646-0.28516 3.276-0.0951 6.0512-0.19001 8.3262-0.28516 2.366-0.0951 3.7774-0.19001 4.2324-0.28515 0.18218-1.0465 0.27344-2.3787 0.27344-3.9961 0.091-1.6174 0.13477-3.2362 0.13477-4.8535 0-1.6174-0.0893-3.1393-0.27149-4.5664-0.091-1.4271-0.27389-2.5201-0.54687-3.2812-5.0051-0.19028-10.056-0.23772-15.152-0.14258-5.005 0.0951-10.1 2.6e-4 -15.287-0.28515v-3.2832c0.091-1.0465 0.091-2.0921 0-3.1387-0.36402-2.759-2.4e-4 -5.1388 1.0918-7.1367 1.183-2.093 2.6839-3.9945 4.5039-5.707 2.184-1.9979 4.5496-3.5693 7.0977-4.7109 2.548-1.2368 5.2336-2.1876 8.0547-2.8535 0.72804-0.19027 1.5013-0.38003 2.3203-0.57031 0.81899-0.19027 1.638-0.38003 2.457-0.57032v-17.125h-2.1836c-0.63702-0.0951-1.2751-0.0951-1.9121 0-3.185 0.57084-6.3239 1.3793-9.418 2.4258-3.0941 0.95139-6.0977 2.2342-9.0098 3.8516-0.819 0.47569-1.7732 0.9046-2.8652 1.2852v-26.828h2.0469c0.72801-0.0951 1.4098-0.14453 2.0469-0.14453 3.822-0.0952 7.599-0.14258 11.33-0.14258h11.467c0.72801 0 1.4098-0.0474 2.0469-0.14258 0.63698-0.0951 1.3188-0.19001 2.0469-0.28515 0.091-2.9493 0.13672-5.756 0.13672-8.4199 0.091-2.759 0.0452-5.6606-0.13672-8.7051h-12.012c-2.093 0.0951-4.1405 0.14257-6.1426 0.14257h-12.012c-1.911-0.0951-3.8214-0.0951-5.7324 0-2.002 0-4.0038-0.0474-6.0059-0.14257-0.50051-0.0238-0.99932-0.0333-1.4941-0.0274zm-472.68 0.0996c-2.7528 0-5.4946 0.0227-8.2246 0.0703-0.27301 6.7549-0.41016 13.463-0.41016 20.123s-0.0438 13.366-0.13477 20.121c-0.091 6.3743-0.18242 12.606-0.27343 18.695 0 6.0889-0.0457 12.321-0.13672 18.695 0 3.2347-0.0457 6.421-0.13672 9.5606v9.5605c0 1.4271 0.13715 2.3323 0.41015 2.7129 0.36401 0.38056 1.183 0.57032 2.457 0.57032 3.822 0.19028 7.6428 0.19028 11.465 0 1.274 0 2.0035-0.14232 2.1856-0.42774 0.27298-0.38056 0.49961-1.2364 0.68164-2.5684v-4.7109c0.18202-10.656 0.27343-21.12 0.27343-31.395 0.091-10.37 0.18243-20.884 0.27344-31.539 0-0.76111 0.0438-1.4746 0.13477-2.1406 0.091-0.76111 0.18242-1.617 0.27344-2.5684 0.728 0.47569 1.3661 0.8552 1.9121 1.1406 0.54601 0.19028 1.045 0.47687 1.5 0.85742l5.1875 4.2812c1.729 1.4271 3.3213 2.949 4.7774 4.5664 6.0971 7.1354 10.647 14.747 13.65 22.834 3.094 8.0868 5.0064 16.839 5.7344 26.258 0.18203 2.093 0.27149 4.1862 0.27149 6.2793v6.2793c0 0.76111 0.0914 1.4746 0.27344 2.1406 0.273 0.57083 0.91109 0.85546 1.9121 0.85546h14.605c0.091-0.95139 0.18243-1.7598 0.27344-2.4258 0.091-0.66597 0.13477-1.3321 0.13477-1.998 0-16.174 0.0457-32.109 0.13672-47.807 0.091-15.793-0.0442-31.73-0.40821-47.809h-16.654c-0.18203 5.3278-0.27344 10.609-0.27344 15.842 0.091 5.1375-0.0442 10.369-0.4082 15.697-4.3681-5.9938-9.1907-11.226-14.469-15.697-5.1871-4.5667-11.194-8.0395-18.02-10.418-0.18199-1.0465-0.31914-1.9973-0.41015-2.8535 0-0.85625-0.0895-1.7615-0.27149-2.7129-2.7755-0.0476-5.5402-0.0703-8.293-0.0703zm261.49 0.0352c-2.0646 0-4.1537 0.10625-6.2695 0.32031-1.547 9.609-3.0498 19.124-4.5059 28.543-1.456 9.3236-2.9112 18.742-4.3672 28.256-1.911-4.2812-3.3224-8.7997-4.2324-13.557-0.91-4.757-2.0014-9.4197-3.2754-13.986-0.455-1.4271-0.95593-3.2337-1.502-5.4219-0.455-2.1882-0.91023-3.9967-1.3652-5.4238-0.0912-0.19029-0.18248-0.28516-0.27344-0.28516h-17.062c-1.638 6.5646-3.276 13.034-4.9141 19.408-1.638 6.3743-3.276 12.796-4.9141 19.266-1.82-9.5139-3.458-18.98-4.9141-28.398-1.456-9.4188-3.0026-18.839-4.6406-28.258-1.092-0.0952-2.4557-0.14258-4.0938-0.14258-1.547-0.0951-3.1413-0.14258-4.7793-0.14258s-3.1846 0.0474-4.6406 0.14258c-1.365 0-2.3649 0.0474-3.002 0.14258-0.091 0.47569 0.0442 2.1894 0.40821 5.1387 0.455 2.9493 1.0017 6.7542 1.6387 11.416 0.637 4.6618 1.4103 9.8957 2.3203 15.699 0.91001 5.7083 1.8205 11.606 2.7305 17.695 1.001 5.9938 1.9572 11.892 2.8672 17.695 0.91001 5.7083 1.7728 10.893 2.5918 15.555l2.0488 11.418c0.54599 2.9493 0.90978 4.6136 1.0918 4.9941h15.424c0.54601-0.0951 0.9555-0.23745 1.2285-0.42774 0.36405-0.28542 0.59263-0.66688 0.6836-1.1426 0.18199-0.47569 0.40863-1.1892 0.68164-2.1406 1.638-6.6597 3.276-13.082 4.9141-19.266 1.638-6.2792 3.3218-12.796 5.0508-19.551 0.091-0.57083 0.40909-1.6164 0.95508-3.1387 0.72801 2.6639 1.3661 5.1366 1.9121 7.4199 0.54601 2.2833 1.0907 4.5188 1.6367 6.707 1.274 4.8521 2.4588 9.5622 3.5508 14.129 1.183 4.4715 2.4115 9.1323 3.6855 13.984 0.45501 1.7125 0.8645 2.7126 1.2285 2.998 0.36399 0.28542 1.3639 0.42774 3.002 0.42774h13.924c0.182-0.66598 0.54581-2.522 1.0918-5.5664 0.63702-3.1396 1.3189-7.0394 2.0469-11.701 0.72802-4.757 1.547-9.9889 2.457-15.697 1.001-5.8035 1.9572-11.704 2.8672-17.697s1.7748-11.844 2.5938-17.553c0.81902-5.8035 1.5466-10.941 2.1836-15.412 0.72804-4.5667 1.2747-8.3241 1.6387-11.273 0.36397-2.9493 0.49916-4.6155 0.4082-4.9961-2.639 0-5.3227-0.0474-8.0527-0.14258-0.68252-0.0238-1.3684-0.0352-2.0566-0.0352zm-374.55 0.0352c-0.54601 0-1.0907 0.0474-1.6367 0.14258-0.45501 0-1.0474 0.0474-1.7754 0.14258-1.729 16.84-3.4585 33.443-5.1875 49.807-1.729 16.269-3.5022 32.917-5.3223 49.947 3.094 0.0951 6.0063 0.14257 8.7363 0.14257 2.73 0 5.5051-0.0949 8.3262-0.28515 1.092-10.275 2.1834-20.265 3.2754-29.969 1.092-9.7993 2.1853-19.741 3.2773-29.826 0.182-0.0951 0.40864-0.14258 0.68164-0.14258 1.274 4.5667 2.594 9.1326 3.959 13.699s2.685 9.2294 3.959 13.986h16.926c1.274 0 2.0473-0.14232 2.3203-0.42774 0.36401-0.28541 0.77351-1.0938 1.2285-2.4258 0.72801-2.3785 1.3642-4.7108 1.9102-6.9941 0.63701-2.2833 1.3208-4.5663 2.0488-6.8496 0.54601-1.9979 1.0907-3.9488 1.6367-5.8516 0.54601-1.9979 1.0927-3.9468 1.6387-5.8496 0.364 0.28541 0.54688 0.66493 0.54688 1.1406 0.63701 5.2326 1.2274 10.417 1.7734 15.555 0.54601 5.1375 1.0927 10.277 1.6387 15.414 0.45501 4.4715 0.91023 8.8002 1.3652 12.986 0.45501 4.1861 0.91023 8.5148 1.3652 12.986 0.182 1.3319 0.40863 2.1404 0.68164 2.4258 0.364 0.28542 1.183 0.42773 2.457 0.42773 1.001 0.0951 1.9572 0.0951 2.8672 0h11.057v-1.998c0.091-0.57084 0.091-1.0946 0-1.5703-0.45501-4.5667-0.95595-8.9428-1.502-13.129-0.455-4.2812-0.91022-8.7048-1.3652-13.271-1.183-11.226-2.3658-22.358-3.5488-33.395-1.092-11.131-2.2291-22.309-3.4121-33.535-0.182-1.5222-0.4563-2.4255-0.82031-2.7109-0.273-0.28541-1.1377-0.47712-2.5938-0.57227h-13.514c-1.82 0-2.9571 0.19171-3.4121 0.57227-0.36401 0.28542-0.81923 1.331-1.3652 3.1387-1.638 5.9938-3.276 11.892-4.9141 17.695-1.638 5.8035-3.4112 11.607-5.3223 17.41-1.729-5.9938-3.4128-11.892-5.0508-17.695-1.638-5.8986-3.3218-11.844-5.0508-17.838-0.455-1.6174-0.86451-2.57-1.2285-2.8555-0.36401-0.28542-1.3202-0.42774-2.8672-0.42774zm85.041 0c-1.638 0-3.1846 0.0949-4.6406 0.28516-1.365 0.0951-2.3669 0.2394-3.0039 0.42969-0.091 0.47569-0.18048 2.1874-0.27149 5.1367-0.091 2.9493-0.18243 6.7542-0.27344 11.416v50.805c0.091 5.7083 0.13672 10.893 0.13672 15.555 0.091 4.5667 0.18243 8.3261 0.27344 11.275 0.091 2.9493 0.18047 4.6136 0.27148 4.9941 5.3691 0.28541 10.647 0.28541 15.834 0 0.091-0.57084 0.18242-2.3794 0.27344-5.4238 0.091-3.1396 0.18242-7.0394 0.27343-11.701 0.091-4.6618 0.13672-9.8938 0.13672-15.697v-35.107c0-5.7083-0.0457-10.845-0.13672-15.412-0.091-4.5667-0.18242-8.2767-0.27343-11.131-0.091-2.9493-0.18243-4.6155-0.27344-4.9961-0.91001-0.19029-2.1385-0.28516-3.6856-0.28516-1.456-0.0951-3.0026-0.14258-4.6406-0.14258zm575.9 0.0723c-1.911 0-3.8234 0.0227-5.7344 0.0703h-11.33c-1.2741 0-2.2283 0.0474-2.8652 0.14258-0.63702 0-1.138 0.19171-1.502 0.57227-0.27303 0.28541-0.45591 0.7598-0.54688 1.4258v95.615c0.091 0.66597 0.13672 1.3795 0.13672 2.1406h16.518c0.091-0.76112 0.13672-1.4747 0.13672-2.1406 0.091-0.66597 0.13672-1.3321 0.13672-1.998v-14.557c0-0.85625 0.0458-1.4749 0.13672-1.8555 0.0908-0.47569 0.22603-0.8552 0.4082-1.1406 0.18202-0.28541 0.45632-0.47517 0.82031-0.57031 0.45501-0.19027 1.0454-0.38198 1.7734-0.57227 1.001-0.19027 1.7743-0.0954 2.3203 0.28516 0.54602 0.38055 1.0927 0.8569 1.6387 1.4277 2.639 2.759 5.4141 5.3286 8.3262 7.707 3.0031 2.3785 6.1419 4.5665 9.418 6.5645 2.639 1.6174 5.3246 2.997 8.0547 4.1387s5.5966 1.9501 8.5996 2.4258c1.092 0.19027 2.1834 0.33259 3.2754 0.42773 1.092 0.0951 2.2291-0.0946 3.4121-0.57031v-15.699c-2.366-0.95139-4.6859-1.8072-6.9609-2.5684-2.184-0.85625-4.323-1.807-6.416-2.8535-2.184-1.0465-4.2316-2.2839-6.1426-3.7109s-3.8214-3.0439-5.7324-4.8516c0.81902-0.4757 1.5466-0.9046 2.1836-1.2852 0.637-0.38055 1.2751-0.76007 1.9121-1.1406 2.912-1.8076 5.5957-3.806 8.0527-5.9941 2.457-2.2833 4.6417-4.8054 6.5527-7.5645 3.913-5.8035 6.1415-11.749 6.6875-17.838 0.63703-6.184-0.22771-12.511-2.5938-18.98-2.5481-7.0403-7.2792-11.606-14.195-13.699-7.0071-2.093-13.923-3.188-20.748-3.2832-1.911-0.0476-3.8214-0.0703-5.7324-0.0703zm-148.65 0.0703c-0.63701 0-1.2732 0.0474-1.9102 0.14258-0.54602 0.0951-1.1841 0.19197-1.9121 0.28711v99.609c2.73-0.0951 5.4614-0.14257 8.1914-0.14257 2.73 0.0951 5.5509 0.0951 8.4629 0v-20.551c0.091-0.76111 0.27386-1.2829 0.54687-1.5684 0.27299-0.38055 0.72626-0.6197 1.3633-0.71485 0.72802-0.19028 1.7756-0.42747 3.1406-0.71289 5.1871-1.3319 10.147-3.1405 14.879-5.4238 4.823-2.2833 9.3733-5.1849 13.65-8.7051 12.558-10.37 17.244-23.736 14.059-40.1-1.183-5.8035-3.6858-10.561-7.5078-14.271-3.731-3.7104-8.3708-5.9934-13.922-6.8496-2.912-0.38054-5.7786-0.66713-8.5996-0.85742-5.0961-0.0951-10.193-0.14258-15.289-0.14258zm15.699 17.697h17.336c1.365 0.19027 2.7287 0.47491 4.0938 0.85547 3.5491 1.0465 5.7337 3.4243 6.5527 7.1348 0.72798 3.5201 0.77374 6.8981 0.13672 10.133-0.54602 3.1396-2.0031 6.0412-4.3692 8.7051-1.274 1.332-2.5483 2.6167-3.8223 3.8535-1.274 1.1417-2.6835 2.1398-4.2305 2.9961-2.366 1.332-4.7774 2.5218-7.2344 3.5684-2.366 1.0465-4.7773 2.0921-7.2344 3.1387-0.455 0.19027-1.0016 0.33455-1.6387 0.42969-0.637 0-1.3189 0.0949-2.0469 0.28516-0.18217-6.9452-0.27343-13.748-0.27343-20.408 0.091-6.6597 0.13672-13.366 0.13672-20.121 0.54601-0.19027 1.0012-0.33259 1.3652-0.42773 0.455-0.0951 0.8645-0.14258 1.2285-0.14258zm143.74 0.35547c1.456 0 2.9112 0.0247 4.3672 0.0723 1.547 0.0951 3.2308 0.47465 5.0508 1.1406 2.8211 1.0465 4.6419 3.0448 5.4609 5.9941 0.81902 3.6153 0.95422 7.0881 0.4082 10.418-0.54601 3.2347-2.0012 6.2312-4.3672 8.9902-0.819 1.0465-1.7294 2.0467-2.7305 2.998s-2.0467 1.8072-3.1387 2.5684c-2.548 1.8076-5.2336 3.4245-8.0547 4.8516-2.7301 1.4271-5.6423 2.5695-8.7363 3.4258-0.36399 0.19027-0.7278 0.33259-1.0918 0.42774-0.36404 0-0.77351 0.0474-1.2285 0.14257-0.27299 0-0.59109-0.0949-0.95508-0.28515-0.0912-0.4757-0.18248-1.6656-0.27344-3.5684-0.0912-1.9979-0.18248-4.3757-0.27344-7.1348v-17.84c0-2.8542 0.0458-5.3269 0.13672-7.4199 0.0912-2.0931 0.18248-3.5201 0.27344-4.2812l1.0918-0.28516c0.36404-0.0951 0.7278-0.14258 1.0918-0.14258h8.5996c1.456-0.0476 2.9131-0.0723 4.3691-0.0723z" clip-path="url(#c)" filter="url(#b)"/>
<path transform="scale(.26458)" d="m36.957 305.37 14.381 43.781h7.3184l11.498-33.357c0.49291-1.4136 1.023-3.1259 1.5898-5.1367 0.17252 0.63709 0.73999 2.3494 1.7012 5.1367l11.422 33.357h6.9141l14.861-43.781h-7.209l-8.5039 28.133c-1.1091 3.5836-2.0072 6.758-2.6973 9.5254-0.8626-4.8379-2.2678-10.003-4.2148-15.498l-7.7637-22.16h-8.6504l-10.314 29.566c-0.24646 0.71672-1.0593 3.4131-2.4395 8.0918-0.64079-2.9665-1.4057-5.9527-2.293-8.959l-8.2441-28.699zm173.71 0v43.781h6.6543v-17.352c0-2.4886 0.36806-4.44 1.1074-5.8535 0.73937-1.4136 1.9721-2.5275 3.6973-3.3438 1.7498-0.83618 3.6104-1.2559 5.582-1.2559 2.6371 0 4.6702 0.6172 6.0996 1.8516 1.4541 1.2144 2.1816 3.1658 2.1816 5.8535v20.1h6.6543v-20.1c0-3.1058-0.46777-5.4749-1.4043-7.1074-0.91189-1.6326-2.4398-2.9064-4.584-3.8223-2.1442-0.93572-4.67-1.4023-7.5781-1.4023-4.732 0-8.6505 1.4526-11.756 4.3594v-15.709zm540.22 0v9.707l2.0332 23.203h4.2891l1.9219-23.203v-9.707zm-591.27 0.98633-6.6172 3.2246v7.8535h-4.8789v4.1816h4.8789v18.246c0 3.2253 0.27225 5.346 0.81445 6.3613 0.54221 0.99545 1.4777 1.8027 2.8086 2.4199 1.3309 0.61716 3.2039 0.92578 5.6191 0.92578 1.4787 0 3.1543-0.15997 5.0273-0.47852l-0.96094-4.748c-1.2076 0.13929-2.1806 0.20898-2.9199 0.20898-0.98582 0-1.7508-0.12984-2.293-0.38867-0.51756-0.25881-0.89808-0.60692-1.1445-1.0449-0.22181-0.43801-0.33398-1.424-0.33398-2.957v-18.545h6.6914v-4.1816h-6.6914zm206.25 0-6.6172 3.2246v7.8535h-4.8809v4.1816h4.8809v18.246c0 3.2253 0.27029 5.346 0.8125 6.3613 0.5422 0.99545 1.4797 1.8027 2.8105 2.4199 1.3309 0.61716 3.2039 0.92578 5.6191 0.92578 1.4787 0 3.1543-0.15997 5.0274-0.47852l-0.96094-4.748c-1.2076 0.13929-2.1825 0.20898-2.9219 0.20898-0.98583 0-1.7488-0.12984-2.291-0.38867-0.51756-0.25881-0.90003-0.60692-1.1465-1.0449-0.22181-0.43801-0.33204-1.424-0.33204-2.957v-18.545h6.6914v-4.1816h-6.6914zm248.24 0-6.6172 3.2246v7.8535h-4.8808v4.1816h4.8808v18.246c0 3.2253 0.27029 5.346 0.8125 6.3613 0.54222 0.99545 1.4797 1.8027 2.8106 2.4199 1.3309 0.61716 3.2039 0.92578 5.6191 0.92578 1.4787 0 3.1543-0.15997 5.0274-0.47852l-0.96094-4.748c-1.2076 0.13929-2.1806 0.20898-2.9199 0.20898-0.98583 0-1.7508-0.12984-2.293-0.38867-0.51757-0.25881-0.90006-0.60692-1.1465-1.0449-0.22173-0.43801-0.33203-1.424-0.33203-2.957v-18.545h6.6914v-4.1816h-6.6914zm-487.84 10.363c-3.3764 0-6.3451 0.37822-8.9082 1.1348-2.5631 0.73664-4.5234 1.8017-5.8789 3.1953-1.3555 1.3737-2.3284 3.1839-2.9199 5.4336l6.5059 0.7168c0.71473-2.2497 1.8123-3.8115 3.291-4.6875 1.5034-0.89591 3.8192-1.3438 6.9492-1.3438 3.3518 0 5.8795 0.60586 7.5801 1.8203 1.2569 0.89591 1.8848 2.4389 1.8848 4.6289 0 0.19909-0.0124 0.66766-0.0371 1.4043-2.5385 0.71673-6.4944 1.3339-11.867 1.8516-2.6371 0.25881-4.6078 0.52791-5.9141 0.80664-1.7745 0.39818-3.3772 0.98526-4.8066 1.7617-1.4048 0.77645-2.5503 1.8114-3.4375 3.1055-0.8626 1.2742-1.2949 2.6873-1.2949 4.2402 0 2.6479 1.1579 4.8288 3.4746 6.541 2.3167 1.6923 5.6323 2.5391 9.9453 2.5391 2.6124 0 5.0529-0.35004 7.3203-1.0469 2.292-0.69681 4.6702-1.8898 7.1348-3.582 0.19716 1.4932 0.64 2.7972 1.3301 3.9121h6.9512c-0.83795-1.2145-1.4054-2.479-1.7012-3.793-0.2711-1.3339-0.40625-4.4989-0.40625-9.4961v-7.168c0-2.3891-0.11218-4.0412-0.33399-4.957-0.39433-1.4733-1.0845-2.6889-2.0703-3.6445-0.98582-0.97555-2.5243-1.7809-4.6191-2.418s-4.8201-0.95508-8.1719-0.95508zm62.404 0c-3.3764 0-6.5071 0.64536-9.3906 1.9394-2.8589 1.2742-4.9917 3.1954-6.3965 5.7637-1.4048 2.5683-2.1055 5.5659-2.1055 8.9902 0 5.2958 1.6257 9.3659 4.8789 12.213 3.2779 2.8271 7.6038 4.2422 12.977 4.2422 4.2883 0 7.8992-1.0255 10.832-3.0762 2.9575-2.0706 4.7931-4.9289 5.5078-8.5723l-6.543-0.68555c-0.46827 2.6877-1.5783 4.6786-3.3281 5.9727s-3.9305 1.9414-6.543 1.9414c-3.2532 0-5.8912-0.9653-7.9121-2.8965-2.0209-1.9312-3.0312-5.0285-3.0312-9.2891 0-4.2008 1.0477-7.2661 3.1426-9.1973 2.0949-1.9511 4.8181-2.9277 8.1699-2.9277 2.2181 0 4.1036 0.53819 5.6562 1.6133 1.5773 1.0751 2.6749 2.6783 3.291 4.8086l6.4688-0.80664c-0.76401-3.2054-2.5019-5.6742-5.2129-7.4062-2.711-1.752-6.1972-2.627-10.461-2.627zm101.07 0c-4.8552 0-8.9712 1.1742-12.348 3.5234-4.0419 2.8271-6.0625 7.1776-6.0625 13.051 0 5.3556 1.688 9.4557 5.0644 12.303 3.4011 2.847 7.8497 4.2715 13.346 4.2715 3.4257 0 6.5813-0.64732 9.4648-1.9414 2.9082-1.2941 5.1138-3.1062 6.6172-5.4356 1.528-2.3493 2.291-5.5651 2.291-9.6465 0-5.037-1.7129-8.9792-5.1387-11.826-3.4257-2.8669-7.837-4.2988-13.234-4.2988zm164.14 0c-4.8552 0-8.9712 1.1742-12.348 3.5234-4.0419 2.8271-6.0625 7.1776-6.0625 13.051 0 5.3556 1.688 9.4557 5.0645 12.303 3.4011 2.847 7.8497 4.2715 13.346 4.2715 3.4257 0 6.5794-0.64732 9.4629-1.9414 2.9082-1.2941 5.1138-3.1062 6.6172-5.4356 1.528-2.3493 2.293-5.5651 2.293-9.6465 0-5.037-1.7129-8.9792-5.1387-11.826-3.4257-2.8669-7.837-4.2988-13.234-4.2988zm82.697 0c-1.5527 0-2.9809 0.35749-4.2871 1.0742-1.2816 0.71673-2.6868 2.1995-4.2148 4.4492v-4.8086h-5.9883v31.717h6.6543v-16.605c0-2.2696 0.37-4.3602 1.1094-6.2715 0.4929-1.2543 1.3182-2.229 2.4766-2.9258 1.1584-0.71673 2.4639-1.0762 3.918-1.0762 1.6266 0 3.2542 0.38956 4.8809 1.166l2.291-4.9883c-2.3167-1.1547-4.5971-1.7305-6.8398-1.7305zm44.732 0c-2.0456 0-3.9684 0.21825-5.7676 0.65625-1.7745 0.41809-3.1778 0.93555-4.2129 1.5527-1.3802 0.79637-2.4777 1.8012-3.291 3.0156-0.78866 1.1945-1.1836 2.4986-1.1836 3.9121 0 1.5529 0.48022 2.9774 1.4414 4.2715 0.98583 1.2742 2.416 2.279 4.2891 3.0156 1.8977 0.71673 5.2862 1.5729 10.166 2.5684 3.6229 0.73663 5.8909 1.3444 6.8027 1.8223 1.3062 0.69682 1.959 1.6527 1.959 2.8672 0 1.3538-0.73997 2.5374-2.2188 3.5527-1.4787 0.99548-3.7447 1.4942-6.8008 1.4942-3.0314 0-5.3971-0.56831-7.0977-1.7031-1.6759-1.1348-2.6987-2.7662-3.0684-4.8965l-6.582 0.83593c0.73938 3.3646 2.4398 5.9031 5.1016 7.6152 2.6864 1.7122 6.582 2.5684 11.684 2.5684 3.0807 0 5.8394-0.42905 8.2793-1.2852 2.4399-0.87599 4.3024-2.101 5.584-3.6738 1.3062-1.5927 1.959-3.2844 1.959-5.0762 0-1.8316-0.53009-3.3652-1.5898-4.5996-1.0598-1.2344-2.5273-2.1696-4.4004-2.8066-1.8485-0.657-5.1247-1.4924-9.832-2.5078-3.2532-0.71674-5.2135-1.1759-5.8789-1.375-1.1583-0.37827-2.0086-0.85623-2.5508-1.4336-0.54221-0.55746-0.8125-1.184-0.8125-1.8809 0-1.095 0.65276-2.0509 1.959-2.8672 1.3062-0.81628 3.4869-1.2246 6.543-1.2246 2.5877 0 4.5835 0.45918 5.9883 1.375 1.4294 0.91582 2.2921 2.1897 2.5879 3.8223l6.5078-0.71679c-0.41897-2.0506-1.1839-3.684-2.293-4.8984-1.1091-1.2344-2.8345-2.209-5.1758-2.9258-2.3167-0.71673-5.015-1.0742-8.0957-1.0742zm62.107 0c-5.422 0-9.8333 1.4714-13.234 4.418-3.4011 2.9466-5.1016 7.0882-5.1016 12.424 0 5.1565 1.6755 9.1683 5.0273 12.035 3.3765 2.847 7.9353 4.2715 13.678 4.2715 4.5594 0 8.3054-0.89568 11.238-2.6875 2.9328-1.7918 4.941-4.3114 6.0254-7.5566l-6.875-0.6875h-2e-3c-1.0105 2.2696-2.3783 3.9237-4.1035 4.959-1.7252 1.0353-3.8062 1.5527-6.2461 1.5527-3.2779 0-6.0136-0.92579-8.207-2.7774-2.1935-1.8515-3.4137-4.5198-3.6602-8.0039h29.279c0.0252-0.63709 0.0371-1.115 0.0371-1.4336 0-5.2361-1.6631-9.2968-4.9902-12.184-3.3272-2.8868-7.6157-4.3301-12.865-4.3301zm43.438 0c-2.5631 0-4.7438 0.40638-6.543 1.2227-1.7991 0.79636-3.4143 2.0026-4.8438 3.6152v-4.123h-6.0625v43.871h6.6543v-15.439c1.1337 1.1547 2.5763 2.1106 4.3262 2.8672 1.7745 0.75655 3.7702 1.1348 5.9883 1.1348 3.0314 0 5.9147-0.68681 8.6504-2.0606 2.7603-1.3936 4.8557-3.3845 6.2852-5.9727 1.4541-2.6081 2.1816-5.5361 2.1816-8.7812 0-3.0262-0.65474-5.8036-1.9609-8.332-1.3062-2.5484-3.2396-4.5185-5.8027-5.9121-2.5632-1.3936-5.5212-2.0898-8.873-2.0898zm37.561 0c-2.0456 0-3.9684 0.21825-5.7676 0.65625-1.7745 0.41809-3.1797 0.93555-4.2148 1.5527-1.3802 0.79637-2.4757 1.8012-3.2891 3.0156-0.78866 1.1945-1.1836 2.4986-1.1836 3.9121 0 1.5529 0.48019 2.9774 1.4414 4.2715 0.98583 1.2742 2.416 2.279 4.2891 3.0156 1.8977 0.71673 5.2862 1.5729 10.166 2.5684 3.6229 0.73663 5.8908 1.3444 6.8027 1.8223 1.3062 0.69682 1.959 1.6527 1.959 2.8672 0 1.3538-0.74 2.5374-2.2188 3.5527-1.4787 0.99548-3.7467 1.4942-6.8027 1.4942-3.0314 0-5.3971-0.56831-7.0977-1.7031-1.6759-1.1348-2.6987-2.7662-3.0684-4.8965l-6.5801 0.83593c0.73938 3.3646 2.4398 5.9031 5.1016 7.6152 2.6864 1.7122 6.58 2.5684 11.682 2.5684 3.0807 0 5.8413-0.42905 8.2813-1.2852 2.4399-0.87599 4.3004-2.101 5.582-3.6738 1.3062-1.5927 1.959-3.2844 1.959-5.0762 0-1.8316-0.52814-3.3652-1.5879-4.5996-1.0598-1.2344-2.5273-2.1696-4.4004-2.8066-1.8484-0.657-5.1267-1.4924-9.834-2.5078-3.2532-0.71674-5.2115-1.1759-5.877-1.375-1.1583-0.37827-2.0086-0.85623-2.5508-1.4336-0.54224-0.55746-0.81445-1.184-0.81445-1.8809 0-1.095 0.65468-2.0509 1.9609-2.8672 1.3062-0.81628 3.4869-1.2246 6.543-1.2246 2.5878 0 4.5835 0.45918 5.9883 1.375 1.4294 0.91582 2.2921 2.1897 2.5879 3.8223l6.5059-0.71679c-0.41898-2.0506-1.182-3.684-2.291-4.8984-1.1091-1.2344-2.8345-2.209-5.1758-2.9258-2.3167-0.71673-5.015-1.0742-8.0957-1.0742zm-408.65 0.71484v19.65c0 2.2895 0.13711 3.9624 0.40821 5.0176 0.39433 1.5728 1.072 2.907 2.0332 4.002 0.98582 1.0751 2.4764 1.9708 4.4727 2.6875 2.0209 0.71674 4.1892 1.0762 6.5059 1.0762 5.2495 0 9.4029-1.7933 12.459-5.377v4.6602h5.9512v-31.717h-6.6543v16.994c0 2.7076-0.37001 4.7775-1.1094 6.2109-0.71472 1.4136-1.9455 2.5388-3.6953 3.375-1.7498 0.81628-3.6228 1.2246-5.6191 1.2246-1.9963 0-3.6738-0.39894-5.0293-1.1953-1.3555-0.81628-2.2412-1.9302-2.6602-3.3438-0.27109-0.97555-0.4082-2.8686-0.4082-5.6758v-17.59zm80.555 0 14.898 31.775c-0.27112 0.57738-0.46858 1.0158-0.5918 1.3145-0.93654 2.1303-1.6142 3.4644-2.0332 4.002-0.56685 0.71672-1.2925 1.2737-2.1797 1.6719-0.88723 0.39817-2.072 0.59765-3.5508 0.59765-1.0844 0-2.3526-0.15997-3.8066-0.47851l0.73828 5.0469c1.5773 0.43799 3.0075 0.6582 4.2891 0.6582 2.1195 0 3.9427-0.41772 5.4707-1.2539 1.528-0.81627 2.8834-2.1109 4.0664-3.8828 0.88723-1.314 2.1324-3.7132 3.7344-7.1973l14.936-32.254h-6.6543l-8.3926 18.486c-1.0598 2.3493-1.9704 4.7578-2.7344 7.2266-0.83794-2.5683-1.7879-5.0163-2.8476-7.3457l-8.1699-18.367zm83.586 0v19.65c0 2.2895 0.13516 3.9624 0.40625 5.0176 0.39433 1.5728 1.072 2.907 2.0332 4.002 0.98583 1.0751 2.4783 1.9708 4.4746 2.6875 2.0209 0.71674 4.1892 1.0762 6.5059 1.0762 5.2495 0 9.4029-1.7933 12.459-5.377v4.6602h5.9512v-31.717h-6.6543v16.994c0 2.7076-0.37 4.7775-1.1094 6.2109-0.71474 1.4136-1.9474 2.5388-3.6973 3.375-1.7498 0.81628-3.6228 1.2246-5.6191 1.2246s-3.6718-0.39894-5.0273-1.1953c-1.3555-0.81628-2.2431-1.9302-2.6621-3.3438-0.2711-0.97555-0.40625-2.8686-0.40625-5.6758v-17.59zm206.32 3.4941c2.8589 0 5.3118 1.0068 7.3574 3.0176 2.0702 2.0108 3.1055 5.0366 3.1055 9.0781 0 4.2406-1.0602 7.3755-3.1797 9.4062-2.0949 2.0108-4.6206 3.0176-7.5781 3.0176-2.9082 0-5.3861-0.97665-7.4316-2.9277-2.0456-1.9511-3.0684-4.9675-3.0684-9.0488 0-4.0814 1.0851-7.1861 3.2539-9.3164 2.1935-2.1502 4.7068-3.2266 7.541-3.2266zm-42.734 0.20899c3.3764 0 6.1246 1.0369 8.2441 3.1074 1.3801 1.3339 2.2179 3.3341 2.5137 6.002h-21.924c0.22181-2.7674 1.3692-4.9764 3.4394-6.6289 2.0949-1.6525 4.6705-2.4805 7.7266-2.4805zm-353.75 0.0312c3.2779 0 6.0136 1.0142 8.207 3.0449 2.2181 2.0108 3.3281 4.9783 3.3281 8.9004 0 4.161-1.0976 7.2564-3.291 9.2871-2.1934 2.0307-4.9416 3.0469-8.2441 3.0469-3.3272 0-6.0878-1.0068-8.2812-3.0176-2.1935-2.0307-3.2891-5.0753-3.2891-9.1367s1.0956-7.0986 3.2891-9.1094 4.9541-3.0156 8.2812-3.0156zm164.14 0c3.2779 0 6.0136 1.0142 8.207 3.0449 2.2181 2.0108 3.3262 4.9783 3.3262 8.9004 0 4.161-1.0956 7.2564-3.2891 9.2871-2.1935 2.0307-4.9416 3.0469-8.2441 3.0469-3.3272 0-6.0878-1.0068-8.2812-3.0176-2.1934-2.0307-3.291-5.0753-3.291-9.1367s1.0976-7.0986 3.291-9.1094c2.1935-2.0108 4.9541-3.0156 8.2812-3.0156zm-319.15 12.064v1.9707c0 2.3692-0.35754 4.1605-1.0723 5.375-0.93654 1.5728-2.4022 2.8186-4.3984 3.7344-1.9963 0.8959-4.2767 1.3438-6.8398 1.3438-2.5878 0-4.5605-0.47798-5.916-1.4336-1.3309-0.95564-1.9961-2.1505-1.9961-3.584 1e-5 -0.93573 0.30965-1.7825 0.92579-2.5391 0.61614-0.77646 1.4894-1.3635 2.623-1.7617 1.1337-0.39818 3.069-0.75567 5.8047-1.0742 4.8305-0.55745 8.4539-1.2349 10.869-2.0312zm616.45 9.7949v6.123h7.6543v-6.123z" clip-path="url(#d)" filter="url(#a)"/>
</g>
</svg>
